<svg width="24" height="24" viewBox="0 0 24 24" fill="none" xmlns="http://www.w3.org/2000/svg">
<path d="M23.0986 4.1158C23.1529 3.42544 23.1417 1.61875 23.1417 0.917073C23.1417 0.917073 18.8252 0.902445 18.1342 0.874604C16.7392 0.817979 15.3244 0.919669 13.9362 0.917073C12.9505 0.915186 11.9801 0.944678 10.9834 0.917073C10.3534 0.899378 0.870883 1.00272 0.870883 1.00272C0.853251 1.6138 0.934023 8.82065 0.874933 10.3106C0.809887 11.9516 0.94403 18.169 0.918059 19.5851C0.903287 20.3949 1.00074 21.8637 0.89876 22.7204L0.918059 23.0955C4.10652 23.0955 8.26362 23.1609 11.5178 23.1385C11.504 21.8719 11.5665 19.7269 11.5112 18.0567C11.4997 17.7137 11.4881 14.1005 11.4478 13.9103C11.4478 13.9103 9.90646 13.9209 9.20358 13.9249C9.20358 13.9249 9.1564 12.5914 9.1564 12.1408C9.1564 11.6977 9.1564 11.2551 9.1564 10.812C9.1564 10.812 10.9491 10.7157 11.453 10.6721C11.453 10.6721 11.5233 8.98085 11.5934 8.43277C11.6734 7.80682 11.6908 7.17451 12.0623 6.62029C12.7423 5.60693 13.418 4.71366 14.6684 4.44399C15.1411 4.34206 18.2622 3.73475 18.3782 4.234L18.3082 7.24175C17.4599 7.24175 16.4444 7.1561 15.5791 7.79314C15.0971 8.14822 14.9648 8.44409 14.9157 9.02733C14.8871 9.36708 14.8802 10.7417 14.8802 10.7417C15.3372 10.8065 16.0137 10.778 16.5047 10.7417C17.0599 10.7008 18.4842 10.8467 18.4842 10.8467C18.4842 11.7562 18.4475 13.8572 18.4509 13.9467C17.8836 13.9375 17.3651 13.954 16.7058 13.9257C16.5988 13.9207 14.8819 13.9462 14.8869 13.9769C15.0115 14.7333 14.8323 15.5364 14.8431 16.3011C14.8493 16.7468 14.9817 21.6209 14.921 23.1073C15.6801 23.1009 16.4416 23.0955 17.2162 23.0955C18.1299 23.0955 22.1982 23.096 23.1083 23.0955C23.1083 23.0955 22.9566 5.92639 23.0986 4.1158Z" fill="#141414"/>
</svg>
