<svg width="80" height="80" viewBox="0 0 80 80" fill="none" xmlns="http://www.w3.org/2000/svg">
<path d="M18.3238 30.4237C18.3324 30.5554 18.3918 30.6787 18.4895 30.7676C18.5872 30.8564 18.7156 30.9038 18.8476 30.8999C18.9832 30.8961 19.1118 30.839 19.2054 30.7409C19.2991 30.6428 19.3502 30.5116 19.3476 30.376C19.3476 30.2903 19.8238 29.1427 20.4381 27.7237C21.1286 26.1237 21.9762 24.2379 22.5047 23.0856C22.5779 23.8568 22.6956 24.6231 22.8571 25.3808C23.4143 27.876 24.0238 30.9094 24.0238 31.1713C24.0238 31.3077 24.078 31.4385 24.1744 31.5349C24.2709 31.6314 24.4017 31.6856 24.5381 31.6856C24.6745 31.6856 24.8053 31.6314 24.9017 31.5349C24.9982 31.4385 25.0524 31.3077 25.0524 31.1713C25.0524 30.8665 24.4286 27.7141 23.8571 25.157C23.643 24.1042 23.3534 23.0682 22.9905 22.057C23.0043 21.9401 22.9775 21.8219 22.9147 21.7223C22.8519 21.6227 22.7568 21.5477 22.6453 21.5098C22.5338 21.4719 22.4127 21.4734 22.3021 21.5141C22.1916 21.5547 22.0984 21.6321 22.0381 21.7332L22.5143 21.9618L22.0381 21.7332C21.6905 22.4237 20.4428 25.1665 19.5095 27.3379C19.0277 28.3295 18.6356 29.3622 18.3381 30.4237H18.3238Z" fill="#141414"/>
<path d="M20.1762 25.1906C20.0398 25.1906 19.909 25.2448 19.8126 25.3412C19.7161 25.4377 19.6619 25.5685 19.6619 25.7049C19.6619 25.8413 19.7161 25.9721 19.8126 26.0685C19.909 26.165 20.0398 26.2192 20.1762 26.2192C20.6 26.2192 20.8619 26.2192 21.1 26.2478C21.6535 26.281 22.2085 26.281 22.7619 26.2478C23.0857 26.2478 23.8429 26.1287 24.3714 26.0573L24.8476 25.9954C24.9152 25.9954 24.9821 25.9821 25.0444 25.9562C25.1068 25.9304 25.1635 25.8925 25.2113 25.8447C25.2591 25.797 25.2969 25.7403 25.3228 25.6779C25.3486 25.6155 25.3619 25.5486 25.3619 25.4811C25.3619 25.4135 25.3486 25.3467 25.3228 25.2843C25.2969 25.2219 25.2591 25.1652 25.2113 25.1174C25.1635 25.0697 25.1068 25.0318 25.0444 25.0059C24.9821 24.9801 24.9152 24.9668 24.8476 24.9668C24.7953 24.9668 24.5572 25.0001 24.2334 25.043C23.7286 25.1097 23 25.2049 22.6953 25.2239C22.18 25.2603 21.6629 25.2603 21.1476 25.2239C20.8714 25.2239 20.5714 25.1954 20.1714 25.1954L20.1762 25.1906Z" fill="#141414"/>
<path d="M30.1095 21.7187C30.0742 21.5902 29.9903 21.4804 29.8756 21.4125C29.7608 21.3446 29.6242 21.3239 29.4945 21.3548C29.3648 21.3857 29.2522 21.4657 29.1804 21.578C29.1086 21.6903 29.0832 21.8261 29.1095 21.9568C29.3407 23.1725 29.4254 24.4115 29.3619 25.6473C29.278 27.0863 29.4031 28.5299 29.7333 29.933C29.741 30.0583 29.7943 30.1765 29.8831 30.2653C29.9719 30.354 30.0901 30.4072 30.2155 30.4148C30.3408 30.4224 30.4646 30.3839 30.5635 30.3066C30.6624 30.2292 30.7296 30.1184 30.7524 29.9949C30.7354 30.1217 30.6713 30.2375 30.5728 30.3192C30.4744 30.4009 30.3489 30.4426 30.2211 30.436C30.0934 30.4294 29.9728 30.375 29.8833 30.2836C29.7938 30.1921 29.742 30.0704 29.7381 29.9425L30.1143 21.7283L30.1095 21.7187ZM30.1095 21.7187C30.3615 23.0137 30.4542 24.3346 30.3857 25.6521C30.3033 27.0044 30.4188 28.3616 30.7286 29.6806V29.7283V29.7997C30.7309 29.8266 30.7309 29.8537 30.7286 29.8806C30.7307 29.9012 30.7307 29.922 30.7286 29.9425C30.7089 30.0499 30.6552 30.1482 30.5755 30.2227C30.4958 30.2973 30.3942 30.3443 30.2857 30.3568C30.1689 30.3668 30.0521 30.337 29.9544 30.2721C29.8566 30.2073 29.7838 30.1112 29.7476 29.9997V29.9711C29.7451 29.9506 29.7451 29.9298 29.7476 29.9092L30.1238 21.7473L30.1095 21.7187ZM30.2333 29.814L30.0524 29.8663L30.2333 29.814ZM29.9952 29.8663H29.9619H29.9952H29.9667H29.9381L29.7571 29.9187L29.9333 29.8711H29.7524H29.9381H29.9714L29.7524 29.8949V29.8378L30.0048 29.8616L29.9952 29.8663Z" fill="#141414"/>
<path d="M34.6762 21.6666C34.6762 21.5302 34.622 21.3994 34.5255 21.303C34.4291 21.2065 34.2983 21.1523 34.1619 21.1523C34.0255 21.1523 33.8947 21.2065 33.7982 21.303C33.7018 21.3994 33.6476 21.5302 33.6476 21.6666C33.6579 23.6752 33.7819 25.6816 34.019 27.6762C34.2285 29.1333 34.6142 30.2238 35.3095 30.2238C35.5154 30.2185 35.7148 30.1504 35.8809 30.0285C36.0309 29.9187 36.1385 29.7607 36.1857 29.5809C36.2191 29.4496 36.1993 29.3104 36.1306 29.1936C36.062 29.0768 35.95 28.9918 35.819 28.9571C35.7229 28.9437 35.625 28.9531 35.5332 28.9846C35.4413 29.016 35.3582 29.0686 35.2904 29.1381C35.2428 28.9523 35.1476 28.3238 35.0333 27.5285C34.8057 25.5827 34.6865 23.6257 34.6762 21.6666Z" fill="#141414"/>
<path d="M29.1953 25.2385C29.069 25.2915 28.9689 25.3926 28.9171 25.5194C28.8653 25.6462 28.866 25.7884 28.9191 25.9147C28.9721 26.041 29.0732 26.141 29.2 26.1928C29.3268 26.2446 29.469 26.2439 29.5953 26.1909C30.1477 25.9575 32.3572 25.7385 33.8429 25.5956C34.4238 25.5868 35.0002 25.4905 35.5524 25.3099C35.6046 25.2668 35.6478 25.2138 35.6796 25.1539C35.7113 25.0941 35.7309 25.0286 35.7373 24.9611C35.7437 24.8937 35.7368 24.8256 35.7169 24.7609C35.697 24.6961 35.6646 24.6359 35.6215 24.5837C35.5783 24.5315 35.5253 24.4883 35.4655 24.4566C35.4056 24.4248 35.3401 24.4052 35.2727 24.3988C35.2052 24.3924 35.1372 24.3993 35.0724 24.4192C35.0077 24.4391 34.9475 24.4715 34.8953 24.5147C34.8191 24.5813 34.4524 24.5147 33.7429 24.5718C32.1953 24.7242 29.8905 24.9528 29.1953 25.248V25.2385Z" fill="#141414"/>
<path d="M38.9857 25.3287C38.998 25.4559 39.0572 25.574 39.1519 25.66C39.2465 25.7459 39.3698 25.7935 39.4976 25.7935C39.6254 25.7935 39.7487 25.7459 39.8433 25.66C39.938 25.574 39.9972 25.4559 40.0095 25.3287V25.0525C40.0095 24.4001 40.0095 23.1144 39.9524 22.4239C40.4779 22.2398 41.029 22.1386 41.5857 22.1239C42.1047 22.1239 42.5762 22.3096 42.6428 22.9144L43.1571 22.8572L42.6476 22.9144V22.943C42.6857 23.262 42.8524 24.6763 43.0143 24.8477C43.0463 24.9182 43.0938 24.9806 43.1532 25.0302C43.2127 25.0797 43.2825 25.1153 43.3576 25.1341C43.4327 25.1529 43.5111 25.1545 43.5869 25.1388C43.6627 25.1231 43.734 25.0905 43.7955 25.0434C43.8569 24.9963 43.9069 24.9359 43.9418 24.8668C43.9766 24.7977 43.9955 24.7216 43.9968 24.6442C43.9982 24.5668 43.982 24.4901 43.9496 24.4198C43.9172 24.3495 43.8693 24.2874 43.8095 24.2382C43.8095 24.2096 43.7 23.1287 43.6762 22.8572C43.6741 22.8446 43.6741 22.8318 43.6762 22.8191C43.5286 21.5191 42.619 21.1287 41.6095 21.1191C40.8539 21.1382 40.1068 21.2847 39.4 21.5525C38.8428 21.7477 38.8524 21.8715 38.9238 22.3668V22.381L39.4333 22.3049L38.9238 22.381C39.0047 22.9477 38.9952 24.3477 38.9952 25.0287V25.3049L38.9857 25.3287Z" fill="#141414"/>
<path d="M41.3667 21.6807C41.3544 21.5534 41.2952 21.4353 41.2005 21.3494C41.1059 21.2634 40.9826 21.2158 40.8548 21.2158C40.727 21.2158 40.6037 21.2634 40.5091 21.3494C40.4144 21.4353 40.3552 21.5534 40.3429 21.6807C40.3429 22.1283 40.3953 22.7331 40.4572 23.395C40.5238 24.1331 40.6 24.9426 40.6 25.6712C40.6 26.3997 40.6381 27.5759 40.7429 28.6759C40.7908 29.4552 40.9185 30.2275 41.1238 30.9807C41.1594 31.0794 41.2092 31.1724 41.2715 31.2569C41.3624 31.3731 41.4823 31.4634 41.6191 31.5188C41.7473 31.5634 41.888 31.556 42.0108 31.4981C42.1337 31.4403 42.2289 31.3366 42.2762 31.2093C42.3048 30.7331 41.8 28.8283 41.7619 28.5807C41.6619 27.5521 41.6238 26.4616 41.6238 25.6712C41.6238 24.8807 41.5477 24.0807 41.4762 23.2902C41.4143 22.6521 41.3619 22.0664 41.3667 21.6759V21.6807Z" fill="#141414"/>
<path d="M47.5048 23.5473C47.5048 23.4806 47.5381 23.4187 47.5476 23.3854V23.3283L47.6 23.2997L47.6619 23.2616L47.7238 23.214L47.7524 23.1854C47.8961 23.0511 48.0688 22.9517 48.2571 22.8949C48.4923 22.8204 48.7351 22.7725 48.981 22.7521C49.2256 22.73 49.4721 22.7396 49.7143 22.7806C49.9125 22.8083 50.1025 22.8781 50.2714 22.9854C50.4504 23.1059 50.6109 23.2519 50.7476 23.4187C50.8605 23.5605 50.9461 23.7219 51 23.8949C51.0597 24.1023 51.0886 24.3173 51.0857 24.533C51.0834 24.7846 51.0659 25.0359 51.0333 25.2854C50.9947 25.6307 50.9131 25.9698 50.7905 26.2949C50.671 26.6052 50.5108 26.8982 50.3143 27.1663C50.1412 27.4043 49.9379 27.6188 49.7095 27.8044C49.5041 27.9696 49.2701 28.0955 49.0191 28.1759H49.0476C48.8401 28.1946 48.6313 28.1946 48.4238 28.1759C48.2404 28.16 48.0597 28.1217 47.8857 28.0616C47.7513 28.0156 47.6245 27.9498 47.5095 27.8664C47.3961 27.7823 47.2965 27.6811 47.2143 27.5663C47.1258 27.4419 47.0553 27.3057 47.0048 27.1616C46.9472 27.0082 46.9088 26.8482 46.8905 26.6854C46.8485 26.3337 46.8565 25.9777 46.9143 25.6283C46.9773 25.2457 47.0745 24.8696 47.2048 24.5044L46.9857 24.1806L47.281 24.2902L47.3238 24.1711C47.3438 24.1184 47.3597 24.0643 47.3714 24.0092V23.9806L47.4286 23.8092C47.4571 23.7283 47.481 23.6283 47.5048 23.5473ZM46.6333 23.0711C46.5714 23.2187 46.5191 23.3664 46.481 23.4759V23.5378V23.6044V23.6521V23.6949L46.4476 23.8425C46.4476 23.8759 46.4476 23.9092 46.4095 23.9473L46.3762 24.0378V24.0711C46.2115 24.5344 46.0935 25.013 46.0238 25.4997C45.9671 25.9152 45.9671 26.3365 46.0238 26.7521C46.0538 27.0041 46.1129 27.2518 46.2 27.4902C46.2826 27.7097 46.393 27.9178 46.5286 28.1092C46.6619 28.3012 46.8223 28.4728 47.0048 28.6187C47.2029 28.7637 47.4211 28.8792 47.6524 28.9616C47.9049 29.048 48.1673 29.1024 48.4333 29.1235C48.7324 29.1563 49.0342 29.1563 49.3333 29.1235H49.3857H49.4286C49.7846 29.0085 50.1181 28.8329 50.4143 28.6044C50.7428 28.3556 51.0317 28.0586 51.2714 27.7235C51.4782 27.3928 51.643 27.0377 51.7619 26.6664C51.9135 26.261 52.0158 25.839 52.0667 25.4092C52.1101 25.0937 52.1292 24.7753 52.1238 24.4568C52.1171 24.175 52.0755 23.8951 52 23.6235C51.9165 23.3453 51.7843 23.0841 51.6095 22.8521C51.4098 22.588 51.1685 22.358 50.8952 22.1711C50.6398 21.997 50.3513 21.877 50.0476 21.8187C49.6864 21.7415 49.3156 21.719 48.9476 21.7521C48.5882 21.7808 48.2342 21.8576 47.8952 21.9806C47.612 22.0897 47.3519 22.2512 47.1286 22.4568L47.0333 22.514C47.0007 22.5363 46.9704 22.5618 46.9429 22.5902C46.9169 22.6156 46.8945 22.6445 46.8762 22.6759C46.8575 22.7061 46.8415 22.738 46.8286 22.7711C46.781 22.8664 46.7333 22.9759 46.6905 23.0854L46.6333 23.0711Z" fill="#141414"/>
<path d="M56.0714 21.8571C56.112 21.7999 56.1406 21.735 56.1552 21.6663C56.1698 21.5977 56.1702 21.5268 56.1564 21.458C56.1426 21.3893 56.1149 21.324 56.0749 21.2664C56.035 21.2087 55.9836 21.1598 55.9241 21.1227C55.8645 21.0856 55.798 21.0611 55.7287 21.0506C55.6593 21.0402 55.5885 21.0441 55.5207 21.062C55.4528 21.08 55.3894 21.1116 55.3342 21.155C55.2791 21.1983 55.2334 21.2525 55.2 21.3142C55.091 21.5634 55.0359 21.8327 55.0381 22.1047C55.0124 22.4502 54.9646 22.7938 54.8952 23.1333L54.8 23.5475C54.4714 24.938 54.0667 26.6809 54.5095 28.3094C54.5418 28.4007 54.5833 28.4885 54.6333 28.5713L54.6571 28.6142C54.7095 28.6952 54.7667 28.7809 54.7952 28.8142C54.8824 28.919 55.0076 28.9848 55.1433 28.9973C55.2791 29.0098 55.4142 28.9679 55.519 28.8809C55.5707 28.8381 55.6135 28.7856 55.6449 28.7263C55.6762 28.6669 55.6955 28.602 55.7017 28.5352C55.7079 28.4684 55.7009 28.401 55.681 28.3369C55.661 28.2729 55.6287 28.2134 55.5857 28.1618L55.5381 28.0904C55.5406 28.0778 55.5406 28.0649 55.5381 28.0523C55.5381 28.0237 55.5381 28.0523 55.5381 28.0523C55.1619 26.6952 55.5381 25.0952 55.8381 23.8142C55.8381 23.738 55.8762 23.638 55.9333 23.3904C56.0148 23.0042 56.0689 22.6128 56.0952 22.219C56.0952 22.0094 56.0952 21.9142 56.0952 21.8856L56.0714 21.8571Z" fill="#141414"/>
<path d="M59.4238 22.2093C59.4326 22.1384 59.4265 22.0664 59.4059 21.998C59.3853 21.9295 59.3507 21.8662 59.3042 21.8119C59.2578 21.7575 59.2005 21.7135 59.1361 21.6826C59.0717 21.6516 59.0016 21.6344 58.9302 21.6321C58.8587 21.6298 58.7876 21.6424 58.7213 21.6691C58.655 21.6958 58.595 21.736 58.5451 21.7871C58.4953 21.8383 58.4566 21.8993 58.4316 21.9663C58.4066 22.0332 58.3958 22.1046 58.4 22.176C58.4 22.5236 58.3619 22.8522 58.3429 23.1569C58.2623 24.1183 58.2831 25.0856 58.4048 26.0426C58.5273 26.9616 58.7624 27.862 59.1048 28.7236C59.4571 29.6188 59.9286 30.2998 60.3809 30.3712C60.4472 30.3812 60.5148 30.3781 60.5799 30.3619C60.645 30.3458 60.7062 30.317 60.7602 30.2772C60.8141 30.2374 60.8597 30.1874 60.8943 30.13C60.9289 30.0726 60.9519 30.0089 60.9619 29.9426C60.9719 29.8763 60.9688 29.8087 60.9526 29.7437C60.9365 29.6786 60.9077 29.6173 60.8679 29.5634C60.8281 29.5094 60.7781 29.4639 60.7207 29.4293C60.6633 29.3946 60.5996 29.3717 60.5333 29.3617C60.3311 29.0441 60.1711 28.7015 60.0571 28.3426C59.746 27.5675 59.5333 26.7564 59.4238 25.9283C59.3105 25.0296 59.2914 24.1215 59.3667 23.2188C59.3667 22.9379 59.4048 22.6283 59.4238 22.2093Z" fill="#141414"/>
<path d="M54.0286 24.7093C53.8922 24.7093 53.7614 24.7634 53.6649 24.8599C53.5685 24.9563 53.5143 25.0871 53.5143 25.2235C53.5143 25.3599 53.5685 25.4908 53.6649 25.5872C53.7614 25.6836 53.8922 25.7378 54.0286 25.7378C54.8048 25.7378 56.0143 25.7378 57.1476 25.6283C57.8656 25.5853 58.579 25.4849 59.2809 25.3283L59.7571 25.2331L60.2809 25.1331C60.4173 25.1331 60.5482 25.0789 60.6446 24.9824C60.741 24.886 60.7952 24.7552 60.7952 24.6188C60.7952 24.4824 60.741 24.3516 60.6446 24.2551C60.5482 24.1587 60.4173 24.1045 60.2809 24.1045C60.2524 24.1045 59.8952 24.1664 59.5714 24.2283L59.0667 24.3188H59C58.3579 24.4635 57.7048 24.5543 57.0476 24.5902C55.9571 24.6712 54.7714 24.695 54.0048 24.695L54.0286 24.7093Z" fill="#141414"/>
<path d="M29.4809 41.4764C29.5488 41.5131 29.6238 41.5347 29.7008 41.5398C29.7778 41.545 29.8551 41.5335 29.9272 41.5061C29.9994 41.4788 30.0648 41.4362 30.1191 41.3814C30.1734 41.3265 30.2152 41.2606 30.2418 41.1882C30.2684 41.1157 30.279 41.0384 30.2731 40.9614C30.2671 40.8845 30.2447 40.8097 30.2073 40.7422C30.1699 40.6747 30.1185 40.616 30.0564 40.5702C29.9943 40.5243 29.9231 40.4923 29.8476 40.4764C29.812 40.4603 29.7797 40.4377 29.7524 40.4097C29.7349 40.3913 29.7233 40.3681 29.719 40.3431C29.6511 40.0011 29.6144 39.6536 29.6095 39.305V39.2621C29.605 38.9774 29.6193 38.6926 29.6524 38.4097C29.7 38.3874 29.7461 38.3619 29.7905 38.3335C30.1805 38.1495 30.5938 38.0197 31.019 37.9478C31.2941 37.8929 31.5773 37.8929 31.8524 37.9478C31.9512 37.9688 32.0445 38.0102 32.1265 38.0692C32.2085 38.1282 32.2773 38.2036 32.3285 38.2907C32.4106 38.4291 32.4625 38.5832 32.4809 38.7431C32.4809 38.7431 32.4809 38.7716 32.4809 38.7859L32.5095 38.9431C32.5863 39.3222 32.642 39.7053 32.6762 40.0907C32.6691 40.1659 32.6778 40.2418 32.7018 40.3135C32.7257 40.3852 32.7644 40.4511 32.8152 40.5069C32.8661 40.5628 32.9281 40.6075 32.9972 40.638C33.0663 40.6686 33.1411 40.6843 33.2166 40.6843C33.2922 40.6843 33.367 40.6686 33.4361 40.638C33.5052 40.6075 33.5672 40.5628 33.6181 40.5069C33.6689 40.4511 33.7076 40.3852 33.7315 40.3135C33.7555 40.2418 33.7642 40.1659 33.7571 40.0907C33.7221 39.6411 33.6585 39.1941 33.5666 38.7526V38.6097C33.569 38.5955 33.569 38.5811 33.5666 38.5669C33.5211 38.2731 33.421 37.9905 33.2714 37.7335C33.1462 37.5235 32.9794 37.3412 32.7813 37.1979C32.5831 37.0546 32.3577 36.9533 32.119 36.9002C31.6995 36.8145 31.2671 36.8145 30.8476 36.9002C30.3096 36.9886 29.7859 37.1487 29.2905 37.3764L29.2047 37.4193L29.1333 37.4621C28.9836 37.5124 28.8514 37.6047 28.7526 37.7279C28.6539 37.8512 28.5926 38.0002 28.5762 38.1573C28.528 38.5316 28.5057 38.9086 28.5095 39.2859C28.5069 39.3017 28.5069 39.3178 28.5095 39.3335C28.5163 39.7411 28.5577 40.1473 28.6333 40.5478C28.6749 40.7645 28.7754 40.9655 28.9238 41.1288C29.0693 41.2912 29.2524 41.4155 29.4571 41.4907L29.4809 41.4764Z" fill="#141414"/>
<path d="M31.2571 37.572C31.2931 37.4337 31.2727 37.2868 31.2004 37.1635C31.128 37.0403 31.0097 36.9508 30.8714 36.9148C30.7331 36.8788 30.5862 36.8993 30.4629 36.9716C30.3397 37.0439 30.2503 37.1623 30.2143 37.3006C30.0954 38.1829 30.0762 39.0758 30.1571 39.9625C30.2381 41.5005 30.4143 43.2672 30.5285 43.9291C30.5952 44.291 30.6809 44.6577 30.7762 45.0053C30.8904 45.4339 31.0238 45.8672 31.1476 46.2386C31.1932 46.3737 31.2905 46.4851 31.4181 46.5485C31.5458 46.6119 31.6934 46.6221 31.8285 46.5767C31.9637 46.5311 32.0755 46.434 32.1396 46.3066C32.2038 46.1791 32.2152 46.0316 32.1714 45.8958C32.0571 45.5625 31.9333 45.1577 31.819 44.7291C31.7238 44.3863 31.6428 44.0434 31.5904 43.7386C31.4809 43.1148 31.3095 41.4101 31.2333 39.9291C31.1561 39.1533 31.1561 38.3716 31.2333 37.5958L31.2571 37.572Z" fill="#141414"/>
<path d="M37.2714 37.3333C37.2391 37.1964 37.1545 37.0777 37.0357 37.0024C36.9169 36.9272 36.7734 36.9015 36.6358 36.9307C36.4983 36.96 36.3777 37.0419 36.2998 37.1589C36.2219 37.276 36.1929 37.4189 36.219 37.5571C36.2667 37.7856 36.6381 38.9856 36.9952 40.0237C37.2619 40.8237 37.5238 41.5666 37.6381 41.819L37.7524 42.0952V42.1237C38.0809 42.9095 38.9381 44.9809 39.1809 45.4571C39.7286 46.6095 40.5428 46.5952 41.3476 46.2142C41.7147 46.0235 42.0609 45.7953 42.3809 45.5333C42.531 45.4215 42.6903 45.3227 42.8571 45.238C42.9961 45.2039 43.1157 45.116 43.1899 44.9937C43.264 44.8714 43.2865 44.7246 43.2524 44.5856C43.2183 44.4467 43.1304 44.327 43.008 44.2529C42.8857 44.1788 42.7389 44.1563 42.6 44.1904C42.3023 44.2962 42.0275 44.4578 41.7905 44.6666L42.1143 45.0952L41.7905 44.6666C41.5134 44.8887 41.2133 45.0803 40.8952 45.238C40.8342 45.2813 40.7638 45.3095 40.6899 45.3205C40.6159 45.3314 40.5404 45.3248 40.4694 45.3012C40.3985 45.2775 40.3341 45.2375 40.2815 45.1843C40.2289 45.1312 40.1895 45.0664 40.1667 44.9952C39.9381 44.519 39.0905 42.4809 38.7619 41.7047V41.6761L38.6762 41.7095L38.7619 41.6761L38.6381 41.4285C38.629 41.4038 38.6178 41.3799 38.6048 41.3571L38.1286 41.6285L38.6048 41.3571C38.5428 41.2523 38.2905 40.519 38.0143 39.6999C37.6762 38.6761 37.3143 37.5523 37.2714 37.3475V37.3333Z" fill="#141414"/>
<path d="M37.3 42.3813C37.2974 42.5142 37.344 42.6433 37.431 42.7439C37.5179 42.8444 37.639 42.9092 37.7709 42.9258C37.9028 42.9423 38.0362 42.9095 38.1453 42.8336C38.2544 42.7576 38.3316 42.644 38.3619 42.5146H38.3285C38.3285 42.5146 38.3285 42.486 38.3285 42.4622L38.2809 42.3908H38.3143L38.3428 42.4289V42.3908H38.3L38.3285 42.4289V42.4622V42.5003C38.9869 41.9808 39.5873 41.3917 40.119 40.7432C40.7408 39.9831 41.4469 39.2962 42.2238 38.6955L37.3 42.3813ZM37.3 42.3813C37.2944 42.2303 37.3318 42.0809 37.4076 41.9503C37.4834 41.8197 37.5947 41.7132 37.7285 41.6432L37.7762 41.6146C38.3532 41.1295 38.8811 40.5888 39.3524 40.0003C40.0335 39.1752 40.8068 38.4306 41.6571 37.7812L41.7095 37.7527C41.9205 37.6231 42.1583 37.5433 42.4047 37.5193H42.4381C42.6042 37.4873 42.7762 37.5088 42.9293 37.5807C43.0825 37.6525 43.2089 37.7711 43.2905 37.9193C43.5285 38.2765 42.4714 38.6003 42.4666 38.6003C42.4817 38.6186 42.4994 38.6346 42.519 38.6479L42.4619 38.6003C42.3967 38.6144 42.334 38.6385 42.2762 38.6717H42.2476L37.3 42.3813ZM43.1428 38.667C43.0564 38.7231 42.9555 38.753 42.8524 38.753C42.7492 38.753 42.6483 38.7231 42.5619 38.667H42.5285H43.1428ZM43.1428 38.667C43.0554 38.723 42.9538 38.7527 42.85 38.7527C42.7462 38.7527 42.6445 38.723 42.5571 38.667H43.1428Z" fill="#141414"/>
<path d="M47.0524 39.8046C47.1948 39.8125 47.3347 39.7639 47.4416 39.6695C47.5485 39.575 47.614 39.4422 47.6238 39.2999C47.6377 39.1692 47.601 39.0382 47.5213 38.9337C47.4416 38.8292 47.3249 38.7591 47.1952 38.738C47.1216 38.6545 47.0621 38.5596 47.019 38.457C46.9223 38.2419 46.8783 38.0068 46.8904 37.7713C46.8988 37.6324 46.9344 37.4965 46.9952 37.3713C47.0544 37.3455 47.1169 37.3279 47.1809 37.3189C47.4679 37.2721 47.7606 37.2721 48.0476 37.3189C48.3892 37.3786 48.7199 37.4893 49.0285 37.6475C49.1852 37.7062 49.3274 37.7978 49.4457 37.9161C49.564 38.0343 49.6555 38.1766 49.7143 38.3332C49.8 38.757 49.8523 39.057 49.8952 39.3904C49.9381 39.7237 49.9666 40.1332 49.9952 40.7332C50.0038 40.8755 50.0681 41.0088 50.1741 41.1041C50.2801 41.1995 50.4194 41.2493 50.5619 41.2427C50.6328 41.2397 50.7024 41.2226 50.7666 41.1923C50.8308 41.162 50.8883 41.1193 50.9357 41.0665C50.9832 41.0137 51.0196 40.952 51.0429 40.885C51.0662 40.8179 51.0759 40.7469 51.0714 40.6761C51.0381 40.0285 51.0095 39.6142 50.9666 39.2475C50.9238 38.8808 50.8619 38.557 50.7714 38.1094C50.6835 37.7932 50.5257 37.5007 50.3098 37.2534C50.0939 37.0062 49.8253 36.8105 49.5238 36.6808C49.1171 36.4752 48.6822 36.3307 48.2333 36.2523C47.8161 36.1763 47.3886 36.1763 46.9714 36.2523C46.7762 36.2747 46.5887 36.3418 46.4236 36.4483C46.2584 36.5549 46.12 36.698 46.019 36.8665C45.8858 37.1235 45.8094 37.4061 45.7952 37.6951C45.7736 38.1057 45.8503 38.5155 46.019 38.8904C46.1526 39.2104 46.378 39.4838 46.6666 39.6761C46.6822 39.6899 46.6999 39.7012 46.719 39.7094C46.8234 39.7613 46.9363 39.7936 47.0524 39.8046Z" fill="#141414"/>
<path d="M48.9905 37.2861C49.0436 37.2358 49.0859 37.1752 49.1148 37.1079C49.1436 37.0407 49.1585 36.9683 49.1585 36.8952C49.1584 36.822 49.1435 36.7496 49.1145 36.6824C49.0855 36.6153 49.0431 36.5547 48.99 36.5044C48.9368 36.4542 48.8739 36.4153 48.8052 36.3902C48.7365 36.365 48.6634 36.3542 48.5904 36.3583C48.5173 36.3623 48.4459 36.3813 48.3804 36.4139C48.3149 36.4465 48.2568 36.4922 48.2095 36.548C47.5429 37.2528 48.0381 40.9337 48.6857 43.2147C48.8002 43.6448 48.9402 44.0678 49.1048 44.4814C49.2084 44.8172 49.4171 45.1109 49.7 45.3194C49.7219 45.3343 49.746 45.3456 49.7714 45.3528C49.8811 45.4051 50.0043 45.4218 50.1239 45.4004C50.2435 45.3791 50.3534 45.3208 50.4381 45.2337C50.4992 45.1766 50.5535 45.1127 50.6 45.0433C50.6484 44.977 50.6914 44.9069 50.7286 44.8337C50.7935 44.7068 50.8054 44.5593 50.7617 44.4235C50.7179 44.2878 50.6221 44.175 50.4952 44.1099C50.3683 44.0666 50.2329 44.0536 50.1 44.0718C49.9714 43.6814 49.8381 43.3337 49.7286 42.929C49.1571 40.8861 48.6 37.6909 49.0048 37.2861H48.9905Z" fill="#141414"/>
<path d="M22.3048 51.1425C22.3225 51.0067 22.2855 50.8695 22.202 50.761C22.1185 50.6525 21.9953 50.5816 21.8595 50.5639C21.7238 50.5462 21.5865 50.5832 21.478 50.6667C21.3695 50.7502 21.2987 50.8734 21.281 51.0091C21.2544 52.3565 21.3372 53.7038 21.5286 55.0377C21.6524 56.3562 21.8849 57.6622 22.2238 58.9425C22.2619 59.0472 22.2953 59.1472 22.3238 59.2425C22.4953 59.8044 22.6619 60.3567 23.3714 60.6425C23.4336 60.6681 23.5003 60.6811 23.5675 60.6808C23.6348 60.6805 23.7013 60.667 23.7633 60.6408C23.8253 60.6147 23.8815 60.5766 23.9286 60.5287C23.9758 60.4807 24.013 60.4239 24.0381 60.3615C24.0638 60.299 24.0769 60.232 24.0767 60.1644C24.0765 60.0968 24.0629 60.0299 24.0368 59.9675C24.0107 59.9052 23.9726 59.8486 23.9246 59.801C23.8766 59.7534 23.8197 59.7157 23.7572 59.6901C23.5048 59.5901 23.4095 59.271 23.3095 58.9472C23.2714 58.8234 23.2334 58.6996 23.1953 58.5901C22.8824 57.3856 22.6674 56.1578 22.5524 54.9187C22.3684 53.6686 22.2856 52.4058 22.3048 51.1425Z" fill="#141414"/>
<path d="M20.9762 51.2619C20.8477 51.2742 20.7284 51.334 20.6417 51.4295C20.5549 51.525 20.5068 51.6495 20.5068 51.7785C20.5068 51.9076 20.5549 52.032 20.6417 52.1276C20.7284 52.2231 20.8477 52.2829 20.9762 52.2952C21.2301 52.2828 21.483 52.2541 21.7333 52.2095C22.0143 52.1666 22.3428 52.119 22.6476 52.0952C22.8925 52.0787 23.1373 52.1294 23.3555 52.2419C23.5737 52.3544 23.757 52.5243 23.8857 52.7333C23.9555 52.8544 23.9977 52.9893 24.0095 53.1285C24.023 53.3512 23.9516 53.5708 23.8095 53.7428C23.0286 54.7619 21.9047 54.7619 21.219 54.7619H20.7714C20.6395 54.7787 20.5193 54.8459 20.4359 54.9495C20.3525 55.053 20.3125 55.1849 20.3242 55.3173C20.3359 55.4497 20.3984 55.5725 20.4987 55.6598C20.5989 55.7471 20.7291 55.7923 20.8619 55.7857C20.9571 55.7857 21.0905 55.7857 21.2333 55.7857C22.1333 55.7857 23.5381 55.7476 24.619 54.3571C24.9215 53.9831 25.0712 53.5084 25.0381 53.0285C25.0129 52.7364 24.9234 52.4535 24.7762 52.2C24.6312 51.948 24.4387 51.7264 24.2095 51.5476C23.7451 51.1818 23.1612 51.0019 22.5714 51.0428C22.2381 51.0714 21.8905 51.1238 21.5857 51.1666C21.3839 51.2008 21.1804 51.2246 20.9762 51.2381V51.2619Z" fill="#141414"/>
<path d="M28.7714 51.8711C28.6552 51.9431 28.5724 52.0583 28.5411 52.1914C28.5099 52.3244 28.5328 52.4645 28.6047 52.5806C28.6767 52.6968 28.7919 52.7797 28.925 52.8109C29.058 52.8422 29.1981 52.8193 29.3143 52.7473C29.6569 52.6036 30.0318 52.5543 30.4 52.6045C30.498 52.6152 30.5941 52.6392 30.6857 52.6759C30.7253 52.694 30.7598 52.7218 30.7857 52.7568C30.8066 52.8235 30.8066 52.8949 30.7857 52.9616C30.7428 53.2902 30.2571 53.5997 29.8 53.914L29.6143 54.033L29.5809 54.0616C29.3299 54.1983 29.1396 54.4243 29.0476 54.6949C29.011 54.8639 29.0244 55.0399 29.0861 55.2014C29.1478 55.3629 29.2552 55.503 29.3952 55.6045L29.4238 55.633C30.2805 56.4508 31.2567 57.1332 32.319 57.6568C33.2095 58.0568 34.0619 58.1664 34.6047 57.6235C34.7004 57.5264 34.7541 57.3955 34.7541 57.2592C34.7541 57.1229 34.7004 56.992 34.6047 56.8949C34.5068 56.799 34.3752 56.7452 34.2381 56.7452C34.101 56.7452 33.9693 56.799 33.8714 56.8949C33.7047 57.0664 33.2619 56.9521 32.7428 56.7187C31.7961 56.2489 30.9246 55.6407 30.1571 54.914C30.1753 54.904 30.1927 54.8928 30.2095 54.8806L30.3952 54.7616C31.0524 54.3426 31.7476 53.8949 31.8238 53.0854C31.872 52.7838 31.8112 52.4749 31.6524 52.214C31.5266 52.007 31.3428 51.8414 31.1238 51.7378C30.9324 51.6449 30.726 51.5868 30.5143 51.5664C29.9146 51.5029 29.309 51.6033 28.7619 51.8568L28.7714 51.8711Z" fill="#141414"/>
<path d="M30.4048 52.4479C30.4048 52.3115 30.3506 52.1807 30.2542 52.0842C30.1577 51.9878 30.0269 51.9336 29.8905 51.9336C29.7541 51.9336 29.6233 51.9878 29.5269 52.0842C29.4304 52.1807 29.3762 52.3115 29.3762 52.4479C29.3762 52.9241 29.4238 53.6955 29.4905 54.4717C29.6048 55.8098 29.7715 57.2336 29.8048 57.4479C29.8807 58.073 30.0195 58.6888 30.2191 59.286C30.3555 59.7357 30.6263 60.1329 30.9953 60.4241C31.0496 60.4641 31.1115 60.4928 31.1771 60.5085C31.2428 60.5243 31.311 60.5266 31.3776 60.5155C31.4442 60.5044 31.5079 60.4801 31.5649 60.4439C31.6219 60.4078 31.6711 60.3605 31.7095 60.305C31.7882 60.1936 31.8197 60.0556 31.7975 59.9211C31.7752 59.7865 31.7008 59.6662 31.5905 59.586C31.3952 59.4132 31.2559 59.186 31.1905 58.9336C31.0147 58.4026 30.8919 57.8555 30.8238 57.3003C30.7953 57.0907 30.6334 55.7098 30.5191 54.386C30.4572 53.6384 30.4048 52.9145 30.4048 52.4479Z" fill="#141414"/>
<path d="M37.781 51.5379C37.9073 51.4747 38.0033 51.364 38.048 51.2301C38.0926 51.0961 38.0822 50.9499 38.0191 50.8236C37.9559 50.6973 37.8452 50.6013 37.7112 50.5566C37.5773 50.512 37.4311 50.5224 37.3048 50.5855C36.6096 50.9236 36.9905 52.3474 37.3048 53.4426C37.4096 53.8379 37.5048 54.1903 37.5238 54.3522C37.5269 54.4944 37.5698 54.633 37.6476 54.7522C37.7755 55.2525 37.971 55.7331 38.2286 56.1807C38.2769 56.2308 38.3349 56.2705 38.399 56.2975C38.4631 56.3245 38.5321 56.3382 38.6016 56.3378C38.6712 56.3374 38.74 56.3228 38.8038 56.2951C38.8676 56.2673 38.9251 56.2269 38.9728 56.1763C39.0205 56.1256 39.0575 56.0659 39.0814 56.0005C39.1054 55.9352 39.1158 55.8657 39.1121 55.7963C39.1084 55.7268 39.0907 55.6588 39.06 55.5964C39.0292 55.5339 38.9862 55.4784 38.9334 55.4331C38.9334 55.4331 38.7477 54.8141 38.6286 54.4379C38.6042 54.3471 38.574 54.2581 38.5381 54.1712C38.5 53.9188 38.4048 53.5665 38.3 53.1712C38.0953 52.4093 37.6953 51.5141 37.7667 51.4807L37.781 51.5379Z" fill="#141414"/>
<path d="M37.3905 51.8139C37.3261 51.8346 37.2664 51.8677 37.2147 51.9114C37.1631 51.9551 37.1206 52.0086 37.0897 52.0687C37.0587 52.1288 37.0399 52.1945 37.0344 52.2619C37.0288 52.3293 37.0365 52.3971 37.0572 52.4616C37.0778 52.526 37.1109 52.5857 37.1546 52.6373C37.1983 52.6889 37.2518 52.7314 37.3119 52.7623C37.3721 52.7933 37.4377 52.8121 37.5051 52.8177C37.5725 52.8233 37.6404 52.8155 37.7048 52.7949C38.1412 52.7388 38.5845 52.8047 38.9857 52.9854C39.4141 53.108 39.801 53.3451 40.1048 53.6711L40.5333 53.3901L40.1 53.6711L40.1286 53.7092C40.221 53.8582 40.2946 54.0182 40.3476 54.1854C40.4185 54.3758 40.4665 54.574 40.4905 54.7758C40.5028 54.9043 40.5626 55.0236 40.6581 55.1104C40.7537 55.1971 40.8781 55.2452 41.0072 55.2452C41.1362 55.2452 41.2606 55.1971 41.3562 55.1104C41.4517 55.0236 41.5115 54.9043 41.5238 54.7758C41.466 54.1911 41.2824 53.6258 40.9857 53.1187C40.5586 52.6077 39.9931 52.2307 39.3572 52.033C38.7435 51.7761 38.0675 51.7065 37.4143 51.833L37.3905 51.8139Z" fill="#141414"/>
<path d="M38.5715 60.4765C38.6374 60.5021 38.7079 60.5138 38.7785 60.5109C38.8492 60.508 38.9185 60.4906 38.9821 60.4597C39.0457 60.4288 39.1023 60.3852 39.1483 60.3314C39.1942 60.2777 39.2286 60.2151 39.2493 60.1475C39.27 60.0798 39.2765 60.0087 39.2685 59.9384C39.2604 59.8682 39.2379 59.8003 39.2025 59.7391C39.167 59.678 39.1193 59.6248 39.0624 59.5828C39.0054 59.5409 38.9404 59.5112 38.8714 59.4955C38.5143 59.386 38.2572 58.6289 38.1095 58.1908C38.1095 58.1289 38.0667 58.067 38.0334 57.9813C38.0334 57.9193 37.9953 57.8574 37.9667 57.786C37.7598 57.2519 37.6004 56.7005 37.4905 56.1384C37.525 56.108 37.5656 56.0852 37.6095 56.0717C37.918 55.9486 38.2367 55.853 38.5619 55.786C38.9195 55.7117 39.2713 55.6114 39.6143 55.486H39.6572C39.9027 55.3847 40.1634 55.3251 40.4286 55.3098C40.646 55.3171 40.857 55.3847 41.0381 55.5051C41.6524 55.8813 41.6619 57.4098 41.6715 58.4479C41.6715 58.6717 41.6715 58.8765 41.6715 59.0432C41.6678 59.1144 41.679 59.1857 41.7043 59.2524C41.7297 59.3192 41.7687 59.3799 41.8188 59.4307C41.8689 59.4816 41.929 59.5214 41.9954 59.5477C42.0617 59.5741 42.1328 59.5863 42.2042 59.5836C42.2755 59.581 42.3455 59.5635 42.4097 59.5323C42.4739 59.5011 42.5309 59.4569 42.5771 59.4025C42.6233 59.3481 42.6577 59.2846 42.678 59.2162C42.6984 59.1478 42.7042 59.0759 42.6953 59.0051C42.6953 58.8336 42.6953 58.6432 42.6953 58.4384C42.6953 57.1432 42.6667 55.3003 41.5762 54.6289C41.2356 54.4039 40.8368 54.2831 40.4286 54.2812C40.0388 54.2892 39.6541 54.3716 39.2953 54.5241H39.2524C38.9529 54.6339 38.6457 54.7214 38.3334 54.786C37.9514 54.8623 37.5769 54.9722 37.2143 55.1146C37.0113 55.193 36.8289 55.3168 36.681 55.4765C36.5268 55.6513 36.442 55.8767 36.4429 56.1098C36.4429 56.2622 36.9619 58.1908 37.0238 58.3479L37.0953 58.5479C37.3048 59.167 37.6715 60.2384 38.5238 60.5003L38.5715 60.4765Z" fill="#141414"/>
<path d="M53.0095 59.4384C52.9689 59.4956 52.9404 59.5605 52.9258 59.6291C52.9112 59.6977 52.9107 59.7686 52.9245 59.8374C52.9383 59.9062 52.9661 59.9714 53.006 60.0291C53.046 60.0868 53.0973 60.1357 53.1568 60.1728C53.2164 60.2099 53.2829 60.2344 53.3523 60.2448C53.4217 60.2552 53.4924 60.2514 53.5603 60.2334C53.6281 60.2155 53.6915 60.1839 53.7467 60.1405C53.8018 60.0971 53.8475 60.0429 53.881 59.9813C53.9866 59.7051 54.0663 59.4198 54.119 59.1289C54.2 58.7622 54.2762 58.3336 54.3095 58.0765C54.4143 57.5241 54.6762 56.6479 54.9429 55.786L55.0619 55.3908C55.1079 55.9481 55.2198 56.4979 55.3952 57.0289C55.6619 57.7098 56.0857 58.0574 56.7619 57.7908C56.8624 57.7501 56.9486 57.6805 57.0095 57.5908C57.4857 57.0098 57.6714 55.4908 57.7524 54.8384C57.7524 54.7432 57.7 54.8384 57.7524 54.7527C57.7898 54.6789 57.8094 54.5973 57.8095 54.5146C57.8095 54.286 57.8762 53.986 57.9238 53.667C57.946 53.9209 57.9651 54.1543 57.981 54.367C58.0035 55.4078 58.2267 56.4345 58.6381 57.3908C58.908 57.9275 59.2509 58.4243 59.6571 58.867C60.0046 59.272 60.4184 59.615 60.881 59.8813C60.941 59.9127 61.0066 59.9319 61.074 59.9379C61.1415 59.9439 61.2095 59.9365 61.2741 59.9162C61.3387 59.8958 61.3986 59.8629 61.4505 59.8193C61.5023 59.7757 61.545 59.7223 61.5762 59.6622C61.638 59.5402 61.6492 59.3987 61.6073 59.2686C61.5654 59.1384 61.4738 59.03 61.3524 58.967C61.0006 58.7595 60.6867 58.4938 60.4238 58.1813C60.0924 57.8265 59.812 57.4275 59.5905 56.9955C59.223 56.1419 59.0257 55.2248 59.0095 54.2955C58.9762 53.8527 58.9429 53.3432 58.8524 52.6812C58.8547 52.6671 58.8547 52.6526 58.8524 52.6384L58.3429 52.7098L58.8524 52.6384C58.8269 52.2538 58.7249 51.8782 58.5524 51.5336C58.2571 51.0574 57.9381 51.0574 57.6 51.3908L57.5619 51.4193L57.9333 51.7812L57.5667 51.4241C57.4278 51.585 57.324 51.7732 57.2619 51.9765C57.0249 52.7849 56.8655 53.614 56.7857 54.4527C56.7857 54.5241 56.7619 54.6098 56.7476 54.7098C56.6762 55.286 56.4857 56.7527 56.4524 56.8146H56.4C56.4 56.8146 56.4 56.7336 56.3714 56.6336C56.1709 55.9177 56.0527 55.1812 56.019 54.4384C55.9762 53.9622 55.9381 53.5527 55.881 53.2146C55.7667 52.5193 55.5429 52.2622 55.1667 52.3479C54.7905 52.4336 54.719 52.6955 54.6333 53.1003L54.6048 53.2384V53.2812C54.4667 53.8955 54.2286 54.6812 53.9952 55.4479C53.7238 56.3384 53.4571 57.2051 53.3429 57.8289C53.2905 58.0146 53.1714 58.6955 53.1286 58.8813C53.0619 59.1813 53.0333 59.3908 53.0238 59.4146L53.0095 59.4384Z" fill="#141414"/>
<path fill-rule="evenodd" clip-rule="evenodd" d="M43.3334 37.957C42.7905 38.0396 42.5 38.2539 42.4619 38.5999C42.5529 38.6674 42.6566 38.716 42.7667 38.7427C42.8667 38.7623 42.9703 38.7528 43.0651 38.7153C43.1598 38.6778 43.2419 38.614 43.3015 38.5313C43.3612 38.4486 43.3958 38.3506 43.4015 38.2488C43.4071 38.147 43.3835 38.0458 43.3334 37.957Z" fill="#141414"/>
<path fill-rule="evenodd" clip-rule="evenodd" d="M49.1619 51.5569C48.4818 51.3609 47.7555 51.3995 47.1 51.6664C46.2619 52.0759 45.6968 52.9601 45.4048 54.3188C45.0871 55.7642 45.1412 57.2666 45.5619 58.6854C45.702 59.0448 45.9274 59.3648 46.2185 59.6178C46.5097 59.8708 46.8579 60.0492 47.2334 60.1378C48.2143 60.3029 48.9572 60.1601 49.4619 59.7093C50.4962 58.4532 51.1166 56.908 51.2381 55.2854C51.2104 54.451 50.9851 53.635 50.581 52.9045C50.2817 52.2952 49.7752 51.8124 49.1524 51.5426L49.1619 51.5569ZM47.6191 52.5712C47.9825 52.4562 48.369 52.4349 48.7429 52.5093C49.6048 52.7616 50.2238 54.514 50.1714 55.2378C50.1191 56.395 49.3191 58.4807 48.781 58.9093C48.4596 59.1321 48.0678 59.23 47.6794 59.1844C47.2909 59.1388 46.9325 58.9529 46.6714 58.6616C46.598 58.5641 46.5387 58.4567 46.4953 58.3426C46.1291 57.1044 46.0848 55.7932 46.3667 54.5331C46.581 53.5807 47.0048 52.6807 47.6 52.5616L47.6191 52.5712Z" fill="#141414"/>
<path d="M8.25714 18.9619C12.7098 12.2399 19.1805 7.10402 26.7378 4.29352C34.2951 1.48302 42.5492 1.14282 50.3121 3.3219C58.0751 5.50098 64.9464 10.0869 69.9372 16.4197C74.9279 22.7525 77.7806 30.5055 78.0847 38.5627C78.3888 46.6199 76.1287 54.5659 71.6295 61.2568C67.1303 67.9478 60.6242 73.0387 53.0476 75.7967C45.471 78.5548 37.2147 78.8378 29.4671 76.6049C21.7195 74.3721 14.8801 69.7386 9.93333 63.3714L11.0381 62.5143C15.8037 68.6451 22.3915 73.1059 29.8534 75.2546C37.3154 77.4034 45.2667 77.1293 52.5629 74.4718C59.8592 71.8143 66.1242 66.9105 70.4563 60.466C74.7884 54.0216 76.9642 46.3689 76.6705 38.6093C76.3769 30.8497 73.6289 23.3833 68.8221 17.2847C64.0153 11.1862 57.3976 6.76987 49.9213 4.67145C42.4451 2.57303 34.4958 2.9007 27.2176 5.60729C19.9394 8.31388 13.7076 13.2598 9.41905 19.7333L8.25714 18.9619Z" fill="#141414"/>
<path d="M6.02383 26.1911L6.0524 26.1244L6.08097 26.0577L6.10954 25.9911L6.13335 25.9244L6.16193 25.8577L6.1905 25.7911L6.21907 25.7244L6.24764 25.6577L6.27621 25.5911L6.30478 25.5292L6.33335 25.4625L6.36193 25.3958L6.3905 25.3292L6.41907 25.2625L6.44764 25.1958L6.47621 25.1339L6.50478 25.0673L6.53335 25.0006L6.56669 24.9339L6.59526 24.872L6.62383 24.8053L6.66669 24.7625L6.70002 24.6958L6.72859 24.6292L6.75716 24.5673L6.7905 24.5006L6.81907 24.4339L6.8524 24.372L6.88097 24.3053L6.91431 24.2387L6.94288 24.1768L6.97621 24.1101L7.00478 24.0434L7.03812 23.9815L7.07145 23.9149L7.10002 23.8482L7.13335 23.7863L7.16669 23.7196L5.91431 23.1006L5.88097 23.1673L5.84764 23.2339L5.81431 23.3006L5.78097 23.3673L5.74764 23.4339L5.71907 23.5006L5.68573 23.5673L5.6524 23.6339L5.61907 23.7053L5.58573 23.772L5.55716 23.8387L5.52383 23.9053L5.4905 23.9768L5.46193 24.0434L5.42859 24.1101L5.40002 24.1768L5.36669 24.2482L5.33812 24.3149L5.30478 24.3815L5.27621 24.453L5.24288 24.5196L5.21431 24.5863L5.18097 24.6577L5.1524 24.7244L5.12383 24.7911L5.09526 24.8625L5.06193 24.9292L5.03335 24.9958L5.00478 25.0673L4.97621 25.1339L4.94764 25.2053L4.91431 25.272L4.88574 25.3434L4.85716 25.4101L4.82859 25.4768L4.80002 25.5482L4.77145 25.6196L4.74288 25.6863L6.02383 26.1911ZM8.63335 59.1673L8.59526 59.1053L8.57145 59.0482L8.52383 58.972L8.48097 58.8958L8.43335 58.8196L8.3905 58.7434L8.34288 58.6672L8.30002 58.5911L8.25716 58.5149L8.20954 58.4387L8.16669 58.3625L8.12383 58.2863L8.08097 58.2101L8.03812 58.1292L7.99526 58.053L7.9524 57.9768L7.90954 57.9006L7.86669 57.8244L7.82383 57.7434L7.78097 57.6672L7.73812 57.5911L7.69526 57.5149L7.61907 57.4291L7.57621 57.353L7.53335 57.2768L7.49526 57.1958L7.4524 57.1196L7.41431 57.0387L7.37145 56.9625L7.33335 56.8863L7.2905 56.8053V56.7815L6.04288 57.4149V57.4387L6.08097 57.5196L6.12383 57.6006L6.16669 57.6863L6.20954 57.7673L6.2524 57.8482L6.29526 57.9292L6.33812 58.0101L6.38097 58.0911L6.42383 58.172L6.46669 58.253L6.50954 58.3292L6.5524 58.4101L6.59526 58.4911L6.64288 58.572L6.68574 58.653L6.72859 58.7339L6.77621 58.8101L6.81907 58.8911L6.86669 58.972L6.90954 59.053L6.95716 59.1292L7.00002 59.2101L7.04764 59.2911L7.09526 59.3672L7.14288 59.4482L7.18573 59.5244L7.23335 59.6053L7.28097 59.6815L7.32859 59.7625L7.37621 59.8387L7.40954 59.9006L8.60954 59.1815L8.63335 59.1673ZM5.64288 52.9768L5.61431 52.9006L5.58097 52.8196L5.5524 52.7387L5.52383 52.653L5.4905 52.572L5.46193 52.4911L5.43335 52.4053L5.40478 52.3244L5.37145 52.2434L5.34288 52.1577L5.31431 52.0768L5.28574 51.9911L5.25716 51.9101L5.22859 51.8244L5.20478 51.7434L5.17621 51.6577L5.14764 51.5768L5.11907 51.4911L5.0905 51.4101V51.3244L5.06193 51.2387L5.03812 51.1577L5.00954 51.072L4.98097 50.9911L4.95716 50.9053V50.8196L4.92859 50.7387L4.90478 50.653V50.5673L4.87621 50.4863L4.8524 50.4006V50.372L3.50954 50.7625V50.7911L3.53812 50.8815V50.9672L3.56669 51.0577L3.5905 51.1434L3.61907 51.2292L3.64764 51.3196L3.67145 51.4053L3.70002 51.4911L3.72859 51.5768V51.6672L3.75716 51.753L3.78574 51.8387L3.81431 51.9244L3.84288 52.0149L3.87145 52.1006L3.90002 52.1863L3.92859 52.272L3.95716 52.3577L3.9905 52.4482L4.01907 52.5339L4.04764 52.6196L4.07621 52.7053L4.10954 52.7911L4.13812 52.8768L4.17145 52.9625L4.20002 53.0482L4.23335 53.1339L4.26193 53.2196L4.28574 53.3339L4.31907 53.4196L4.34288 53.4958L5.65716 53.0196L5.64288 52.9768ZM3.84288 46.4053V46.3196V46.2339V46.1482V46.0577V45.972V45.8863V45.8006V45.7101V45.6244V45.5387V45.4482V45.3625V45.272V45.1863V45.1006V45.0101V44.9244V44.8339V44.7482V44.6625V44.572V44.4863V44.3958V44.3101V44.2196V44.1339V44.0434V43.9577V43.8673V43.7815V43.6911L2.08097 43.8101V43.9101V44.0053V44.0958V44.1863V44.2768V44.3673V44.4625V44.553V44.6434V44.7339V44.8244V44.9149V45.0053V45.0958V45.1911V45.2815V45.372V45.4625V45.553V45.6434V45.7339V45.8244V45.9149V46.0053V46.0958L2.38097 46.1911V46.2815V46.372V46.4625V46.553V46.6339L3.75716 46.4006L3.84288 46.4053ZM3.30478 39.572V37.0958V37.0244V36.8339L1.91431 36.7101V36.8339V36.9053V37.0577V37.1292V39.553H3.31431L3.30478 39.572ZM4.03812 32.7625V32.7006V32.6292V32.5625V32.4911V32.4196V32.353V32.2815V32.2101V32.1434V32.072V32.0006V31.9339V31.8625V31.7911V31.7196V31.653V31.5815V31.5149V31.4434V31.372V31.3053V31.2339V31.1673V31.0958V31.0244V30.9577V30.8863V30.8196V30.7482V30.6815V30.6101V30.5434V30.472V30.4053V30.3339V30.2673V30.1958V30.1292V30.0958L3.33335 29.7149V29.7482V29.8196V29.8911V29.9625V30.0339V30.1053V30.1768V30.2482V30.3244V30.3958V30.4673V30.5387V30.6101V30.6815V30.753V30.8244V30.8958V30.972V31.0434V31.1149V31.1863V31.2577V31.3292V31.4053V31.4768V31.5482V31.6196V31.6958V31.7673V31.8387V31.9101V31.9815V32.0577V32.1292V32.2006V32.272V32.3482V32.4196V32.4815L4.70478 32.7625H4.03812Z" fill="#141414"/>
</svg>
