<svg width="76" height="76" viewBox="0 0 76 76" fill="none" xmlns="http://www.w3.org/2000/svg">
<path d="M17.4076 28.9026C17.4157 29.0278 17.4722 29.1449 17.565 29.2293C17.6578 29.3137 17.7798 29.3588 17.9052 29.355C18.034 29.3514 18.1562 29.2971 18.2451 29.2039C18.3341 29.1107 18.3826 28.9862 18.3802 28.8574C18.3802 28.7759 18.8326 27.6857 19.4162 26.3376C20.0721 24.8176 20.8774 23.0262 21.3795 21.9314C21.449 22.6641 21.5608 23.3921 21.7143 24.1119C22.2435 26.4824 22.8226 29.364 22.8226 29.6128C22.8226 29.7424 22.8741 29.8667 22.9657 29.9583C23.0573 30.0499 23.1816 30.1014 23.3112 30.1014C23.4407 30.1014 23.565 30.0499 23.6566 29.9583C23.7483 29.8667 23.7997 29.7424 23.7997 29.6128C23.7997 29.3233 23.2071 26.3285 22.6643 23.8993C22.4609 22.8991 22.1857 21.9149 21.8409 20.9543C21.854 20.8432 21.8286 20.7309 21.7689 20.6363C21.7093 20.5417 21.6189 20.4704 21.513 20.4344C21.4071 20.3984 21.292 20.3998 21.187 20.4385C21.082 20.4771 20.9935 20.5506 20.9362 20.6466L21.3885 20.8638L20.9362 20.6466C20.6059 21.3026 19.4207 23.9083 18.534 25.9712C18.0763 26.9131 17.7038 27.8942 17.4212 28.9026H17.4076Z" fill="#1D1D1B"/>
<path d="M19.1674 23.9309C19.0378 23.9309 18.9136 23.9824 18.8219 24.074C18.7303 24.1657 18.6788 24.2899 18.6788 24.4195C18.6788 24.5491 18.7303 24.6734 18.8219 24.765C18.9136 24.8566 19.0378 24.9081 19.1674 24.9081C19.57 24.9081 19.8188 24.9081 20.045 24.9352C20.5708 24.9668 21.098 24.9668 21.6238 24.9352C21.9314 24.9352 22.6507 24.8221 23.1529 24.7543L23.6053 24.6955C23.6694 24.6955 23.7329 24.6828 23.7922 24.6583C23.8515 24.6337 23.9054 24.5977 23.9507 24.5524C23.9961 24.507 24.0321 24.4531 24.0566 24.3939C24.0812 24.3346 24.0938 24.2711 24.0938 24.2069C24.0938 24.1427 24.0812 24.0792 24.0566 24.0199C24.0321 23.9607 23.9961 23.9068 23.9507 23.8614C23.9054 23.8161 23.8515 23.7801 23.7922 23.7555C23.7329 23.731 23.6694 23.7183 23.6053 23.7183C23.5555 23.7183 23.3293 23.75 23.0217 23.7907C22.5422 23.854 21.85 23.9445 21.5605 23.9626C21.071 23.9971 20.5797 23.9971 20.0903 23.9626C19.8279 23.9626 19.5429 23.9355 19.1629 23.9355L19.1674 23.9309Z" fill="#1D1D1B"/>
<path d="M28.6041 20.6331C28.5705 20.511 28.4908 20.4067 28.3818 20.3422C28.2728 20.2777 28.143 20.258 28.0198 20.2874C27.8966 20.3167 27.7896 20.3927 27.7214 20.4994C27.6532 20.6061 27.629 20.7351 27.6541 20.8593C27.8737 22.0142 27.9542 23.1912 27.8938 24.3652C27.8141 25.7323 27.933 27.1037 28.2467 28.4367C28.254 28.5557 28.3046 28.668 28.389 28.7523C28.4733 28.8366 28.5857 28.8872 28.7047 28.8944C28.8238 28.9016 28.9414 28.8651 29.0353 28.7916C29.1293 28.7181 29.1931 28.6128 29.2148 28.4955C29.1986 28.6159 29.1377 28.7259 29.0442 28.8035C28.9507 28.8811 28.8314 28.9207 28.7101 28.9145C28.5887 28.9082 28.4741 28.8565 28.3891 28.7697C28.3041 28.6828 28.2549 28.5672 28.2512 28.4457L28.6086 20.6421L28.6041 20.6331ZM28.6041 20.6331C28.8434 21.8633 28.9316 23.1182 28.8664 24.3698C28.7881 25.6545 28.8978 26.9439 29.1922 28.1969V28.2421V28.31C29.1943 28.3356 29.1943 28.3613 29.1922 28.3869C29.1942 28.4065 29.1942 28.4262 29.1922 28.4457C29.1735 28.5477 29.1225 28.641 29.0467 28.7119C28.971 28.7828 28.8745 28.8274 28.7714 28.8393C28.6604 28.8488 28.5495 28.8204 28.4567 28.7588C28.3638 28.6972 28.2946 28.606 28.2603 28.5V28.4729C28.2578 28.4533 28.2578 28.4336 28.2603 28.414L28.6176 20.6602L28.6041 20.6331ZM28.7217 28.3236L28.5498 28.3733L28.7217 28.3236ZM28.4955 28.3733H28.4638H28.4955H28.4683H28.4412L28.2693 28.4231L28.4367 28.3779H28.2648H28.4412H28.4729L28.2648 28.4005V28.3462L28.5045 28.3688L28.4955 28.3733Z" fill="#1D1D1B"/>
<path d="M32.9423 20.5833C32.9423 20.4538 32.8909 20.3295 32.7993 20.2379C32.7076 20.1462 32.5834 20.0948 32.4538 20.0948C32.3242 20.0948 32.1999 20.1462 32.1083 20.2379C32.0167 20.3295 31.9652 20.4538 31.9652 20.5833C31.975 22.4915 32.0928 24.3975 32.3181 26.2924C32.5171 27.6767 32.8835 28.7126 33.544 28.7126C33.7397 28.7076 33.9291 28.6429 34.0869 28.5271C34.2293 28.4228 34.3316 28.2727 34.3764 28.1019C34.4081 27.9772 34.3893 27.8449 34.3241 27.734C34.2589 27.623 34.1525 27.5423 34.0281 27.5093C33.9367 27.4966 33.8437 27.5055 33.7565 27.5354C33.6693 27.5652 33.5903 27.6152 33.5259 27.6812C33.4807 27.5048 33.3902 26.9076 33.2816 26.1521C33.0654 24.3036 32.9522 22.4445 32.9423 20.5833Z" fill="#1D1D1B"/>
<path d="M27.7355 23.9762C27.6155 24.0266 27.5205 24.1225 27.4712 24.243C27.422 24.3635 27.4227 24.4986 27.4731 24.6185C27.5235 24.7385 27.6195 24.8336 27.7399 24.8828C27.8604 24.932 27.9955 24.9313 28.1155 24.8809C28.6402 24.6593 30.7393 24.4512 32.1507 24.3155C32.7026 24.3071 33.2501 24.2156 33.7748 24.044C33.8244 24.003 33.8654 23.9527 33.8956 23.8958C33.9257 23.839 33.9443 23.7767 33.9504 23.7127C33.9565 23.6486 33.9499 23.584 33.9311 23.5225C33.9122 23.4609 33.8813 23.4038 33.8404 23.3541C33.7994 23.3045 33.749 23.2635 33.6922 23.2334C33.6353 23.2032 33.5731 23.1846 33.509 23.1785C33.4449 23.1724 33.3803 23.179 33.3188 23.1979C33.2573 23.2167 33.2001 23.2476 33.1505 23.2886C33.0781 23.3519 32.7298 23.2885 32.0557 23.3428C30.5855 23.4876 28.396 23.7047 27.7355 23.9852V23.9762Z" fill="#1D1D1B"/>
<path d="M37.0364 24.0621C37.0481 24.183 37.1044 24.2952 37.1943 24.3769C37.2842 24.4585 37.4013 24.5037 37.5227 24.5037C37.6442 24.5037 37.7613 24.4585 37.8512 24.3769C37.9411 24.2952 37.9974 24.183 38.009 24.0621V23.7997C38.009 23.18 38.009 21.9586 37.9548 21.3026C38.4541 21.1277 38.9775 21.0315 39.5064 21.0176C39.9995 21.0176 40.4474 21.194 40.5107 21.7686L40.9993 21.7143L40.5152 21.7686V21.7957C40.5514 22.0988 40.7098 23.4424 40.8636 23.6052C40.894 23.6722 40.9391 23.7314 40.9956 23.7785C41.052 23.8257 41.1184 23.8594 41.1898 23.8773C41.2611 23.8951 41.3356 23.8967 41.4076 23.8817C41.4796 23.8668 41.5473 23.8358 41.6057 23.7911C41.6641 23.7464 41.7116 23.689 41.7447 23.6234C41.7778 23.5577 41.7957 23.4854 41.797 23.4119C41.7983 23.3383 41.7829 23.2655 41.7521 23.1987C41.7213 23.1319 41.6758 23.0729 41.619 23.0262C41.619 22.999 41.515 21.9721 41.4924 21.7143C41.4904 21.7023 41.4904 21.6901 41.4924 21.6781C41.3521 20.4431 40.4881 20.0721 39.529 20.0631C38.8112 20.0812 38.1015 20.2203 37.43 20.4747C36.9007 20.6602 36.9098 20.7778 36.9776 21.2483V21.2619L37.4617 21.1895L36.9776 21.2619C37.0545 21.8002 37.0455 23.1302 37.0455 23.7771V24.0395L37.0364 24.0621Z" fill="#1D1D1B"/>
<path d="M39.2984 20.5969C39.2867 20.476 39.2304 20.3638 39.1405 20.2822C39.0506 20.2005 38.9335 20.1553 38.8121 20.1553C38.6906 20.1553 38.5735 20.2005 38.4836 20.2822C38.3937 20.3638 38.3374 20.476 38.3257 20.5969C38.3257 21.0222 38.3755 21.5967 38.4343 22.2255C38.4976 22.9267 38.57 23.6957 38.57 24.3879C38.57 25.08 38.6062 26.1974 38.7057 27.2424C38.7513 27.9827 38.8725 28.7164 39.0676 29.4319C39.1015 29.5257 39.1487 29.6141 39.2079 29.6943C39.2943 29.8047 39.4082 29.8905 39.5381 29.9431C39.66 29.9855 39.7936 29.9785 39.9103 29.9235C40.027 29.8685 40.1175 29.77 40.1624 29.6491C40.1895 29.1967 39.71 27.3872 39.6738 27.1519C39.5788 26.1748 39.5426 25.1388 39.5426 24.3879C39.5426 23.6369 39.4703 22.8769 39.4024 22.126C39.3436 21.5198 39.2938 20.9633 39.2984 20.5924V20.5969Z" fill="#1D1D1B"/>
<path d="M45.1295 22.3703C45.1295 22.3069 45.1612 22.2481 45.1702 22.2164V22.1622L45.22 22.135L45.2788 22.0988L45.3376 22.0536L45.3648 22.0264C45.5013 21.8989 45.6654 21.8044 45.8443 21.7505C46.0677 21.6797 46.2984 21.6342 46.5319 21.6148C46.7643 21.5938 46.9985 21.603 47.2286 21.6419C47.4169 21.6682 47.5974 21.7345 47.7579 21.8364C47.9279 21.9509 48.0803 22.0896 48.2102 22.2481C48.3175 22.3827 48.3988 22.5361 48.45 22.7005C48.5067 22.8975 48.5342 23.1017 48.5314 23.3067C48.5292 23.5457 48.5126 23.7844 48.4817 24.0214C48.4449 24.3495 48.3674 24.6716 48.251 24.9805C48.1374 25.2752 47.9853 25.5536 47.7986 25.8084C47.6341 26.0344 47.441 26.2382 47.224 26.4145C47.0289 26.5714 46.8065 26.691 46.5681 26.7674H46.5952C46.3981 26.7852 46.1998 26.7852 46.0026 26.7674C45.8284 26.7524 45.6567 26.7159 45.4914 26.6588C45.3637 26.6151 45.2433 26.5526 45.134 26.4734C45.0263 26.3935 44.9317 26.2974 44.8536 26.1884C44.7695 26.0701 44.7025 25.9407 44.6545 25.8038C44.5998 25.6581 44.5633 25.5061 44.546 25.3514C44.506 25.0173 44.5137 24.6792 44.5686 24.3472C44.6284 23.9837 44.7208 23.6264 44.8445 23.2795L44.6364 22.9719L44.9169 23.076L44.9576 22.9629C44.9766 22.9128 44.9917 22.8614 45.0029 22.8091V22.7819L45.0571 22.6191C45.0843 22.5422 45.1069 22.4472 45.1295 22.3703ZM44.3017 21.9179C44.2429 22.0581 44.1931 22.1984 44.1569 22.3024V22.3612V22.4245V22.4698V22.5105L44.1252 22.6507C44.1252 22.6824 44.1252 22.7141 44.089 22.7503L44.0574 22.8362V22.8679C43.9009 23.308 43.7888 23.7626 43.7226 24.225C43.6687 24.6198 43.6687 25.02 43.7226 25.4148C43.7511 25.6542 43.8073 25.8895 43.89 26.116C43.9685 26.3245 44.0734 26.5222 44.2021 26.7041C44.3288 26.8864 44.4811 27.0495 44.6545 27.1881C44.8428 27.3259 45.05 27.4356 45.2698 27.5138C45.5097 27.5959 45.7589 27.6476 46.0117 27.6676C46.2958 27.6988 46.5825 27.6988 46.8667 27.6676H46.9164H46.9571C47.2954 27.5584 47.6122 27.3916 47.8936 27.1745C48.2056 26.9382 48.4801 26.656 48.7079 26.3376C48.9043 26.0235 49.0608 25.6862 49.1738 25.3334C49.3178 24.9483 49.415 24.5473 49.4633 24.1391C49.5046 23.8393 49.5227 23.5368 49.5176 23.2343C49.5112 22.9666 49.4717 22.7007 49.4 22.4426C49.3206 22.1783 49.195 21.9302 49.029 21.7098C48.8393 21.4589 48.6101 21.2405 48.3505 21.0629C48.1078 20.8974 47.8337 20.7835 47.5452 20.7281C47.202 20.6548 46.8498 20.6334 46.5002 20.6648C46.1588 20.692 45.8225 20.7651 45.5005 20.8819C45.2314 20.9855 44.9843 21.139 44.7721 21.3343L44.6817 21.3886C44.6507 21.4098 44.6219 21.434 44.5957 21.461C44.5711 21.4852 44.5498 21.5126 44.5324 21.5424C44.5146 21.5711 44.4995 21.6014 44.4871 21.6329C44.4419 21.7234 44.3967 21.8274 44.356 21.9314L44.3017 21.9179Z" fill="#1D1D1B"/>
<path d="M53.2679 20.7643C53.3065 20.7099 53.3336 20.6483 53.3474 20.5831C53.3613 20.5179 53.3617 20.4506 53.3486 20.3852C53.3355 20.3199 53.3092 20.2579 53.2712 20.2031C53.2333 20.1483 53.1845 20.1019 53.1279 20.0666C53.0713 20.0314 53.0082 20.0081 52.9422 19.9982C52.8763 19.9883 52.8091 19.9919 52.7447 20.009C52.6802 20.026 52.62 20.0561 52.5676 20.0973C52.5152 20.1385 52.4718 20.19 52.44 20.2486C52.3365 20.4853 52.2841 20.7412 52.2862 20.9995C52.2618 21.3278 52.2164 21.6542 52.1505 21.9767L52.06 22.3702C51.7479 23.6912 51.3633 25.3469 51.7841 26.894C51.8147 26.9807 51.8541 27.0641 51.9017 27.1428L51.9243 27.1836C51.9741 27.2605 52.0283 27.3419 52.0555 27.3736C52.1383 27.4731 52.2573 27.5356 52.3862 27.5475C52.5151 27.5594 52.6435 27.5196 52.7431 27.4369C52.7922 27.3963 52.8329 27.3464 52.8627 27.29C52.8924 27.2337 52.9108 27.172 52.9167 27.1085C52.9226 27.045 52.9159 26.981 52.8969 26.9202C52.878 26.8593 52.8473 26.8027 52.8064 26.7538L52.7612 26.6859C52.7636 26.674 52.7636 26.6617 52.7612 26.6497C52.7612 26.6226 52.7612 26.6497 52.7612 26.6497C52.4038 25.3605 52.7612 23.8405 53.0462 22.6236C53.0462 22.5512 53.0824 22.4562 53.1367 22.2209C53.2141 21.8541 53.2655 21.4822 53.2905 21.1081C53.2905 20.909 53.2905 20.8186 53.2905 20.7914L53.2679 20.7643Z" fill="#1D1D1B"/>
<path d="M56.4526 21.099C56.461 21.0317 56.4552 20.9633 56.4356 20.8983C56.4161 20.8333 56.3832 20.7731 56.339 20.7215C56.2949 20.6699 56.2405 20.628 56.1793 20.5986C56.1181 20.5692 56.0515 20.5529 55.9836 20.5507C55.9158 20.5485 55.8482 20.5605 55.7853 20.5858C55.7223 20.6112 55.6653 20.6494 55.6179 20.698C55.5705 20.7466 55.5338 20.8045 55.51 20.8681C55.4863 20.9317 55.4761 20.9996 55.48 21.0674C55.48 21.3976 55.4438 21.7098 55.4257 21.9993C55.3492 22.9126 55.3689 23.8315 55.4845 24.7407C55.6009 25.6137 55.8243 26.4691 56.1495 27.2876C56.4843 28.1381 56.9321 28.785 57.3619 28.8528C57.4249 28.8623 57.4891 28.8594 57.5509 28.844C57.6127 28.8287 57.6709 28.8014 57.7222 28.7636C57.7734 28.7258 57.8167 28.6782 57.8496 28.6237C57.8825 28.5692 57.9043 28.5087 57.9138 28.4457C57.9233 28.3827 57.9203 28.3185 57.905 28.2567C57.8897 28.1949 57.8623 28.1367 57.8245 28.0854C57.7867 28.0342 57.7392 27.9909 57.6847 27.958C57.6301 27.9251 57.5696 27.9033 57.5067 27.8938C57.3146 27.592 57.1625 27.2666 57.0543 26.9257C56.7587 26.1893 56.5566 25.4188 56.4526 24.6321C56.345 23.7783 56.3268 22.9157 56.3983 22.0581C56.3983 21.7912 56.4345 21.4971 56.4526 21.099Z" fill="#1D1D1B"/>
<path d="M51.3271 23.4741C51.1976 23.4741 51.0733 23.5255 50.9817 23.6172C50.89 23.7088 50.8386 23.8331 50.8386 23.9626C50.8386 24.0922 50.89 24.2165 50.9817 24.3081C51.0733 24.3997 51.1976 24.4512 51.3271 24.4512C52.0645 24.4512 53.2136 24.4512 54.2902 24.3472C54.9723 24.3063 55.65 24.211 56.3169 24.0622L56.7693 23.9717L57.2669 23.8767C57.3965 23.8767 57.5207 23.8252 57.6124 23.7336C57.704 23.642 57.7555 23.5177 57.7555 23.3881C57.7555 23.2585 57.704 23.1343 57.6124 23.0426C57.5207 22.951 57.3965 22.8995 57.2669 22.8995C57.2398 22.8995 56.9005 22.9583 56.5928 23.0172L56.1133 23.1031H56.05C55.44 23.2406 54.8196 23.3268 54.1952 23.361C53.1593 23.4379 52.0329 23.4605 51.3045 23.4605L51.3271 23.4741Z" fill="#1D1D1B"/>
<path d="M28.0069 39.4024C28.0714 39.4372 28.1427 39.4578 28.2158 39.4626C28.289 39.4675 28.3623 39.4566 28.4309 39.4306C28.4994 39.4047 28.5616 39.3642 28.6132 39.3121C28.6647 39.26 28.7045 39.1974 28.7297 39.1286C28.755 39.0597 28.7651 38.9863 28.7595 38.9132C28.7538 38.8401 28.7325 38.7691 28.697 38.7049C28.6615 38.6408 28.6126 38.585 28.5536 38.5415C28.4946 38.4979 28.427 38.4675 28.3552 38.4524C28.3214 38.4371 28.2907 38.4156 28.2648 38.3891C28.2482 38.3715 28.2372 38.3495 28.2331 38.3257C28.1686 38.0008 28.1337 37.6707 28.1291 37.3395V37.2988C28.1248 37.0283 28.1384 36.7578 28.1698 36.4891C28.215 36.4678 28.2589 36.4437 28.301 36.4167C28.6715 36.2418 29.0641 36.1185 29.4681 36.0503C29.7294 35.9981 29.9985 35.9981 30.2598 36.0503C30.3536 36.0702 30.4423 36.1095 30.5202 36.1656C30.5981 36.2216 30.6634 36.2933 30.7121 36.376C30.7901 36.5074 30.8394 36.6539 30.8569 36.8057C30.8569 36.8057 30.8569 36.8329 30.8569 36.8464L30.884 36.9957C30.957 37.3559 31.0099 37.7199 31.0424 38.086C31.0357 38.1574 31.0439 38.2295 31.0667 38.2976C31.0894 38.3657 31.1262 38.4283 31.1745 38.4814C31.2228 38.5345 31.2817 38.5769 31.3474 38.6059C31.413 38.6349 31.484 38.6499 31.5558 38.6499C31.6276 38.6499 31.6986 38.6349 31.7643 38.6059C31.83 38.5769 31.8888 38.5345 31.9372 38.4814C31.9855 38.4283 32.0222 38.3657 32.045 38.2976C32.0677 38.2295 32.076 38.1574 32.0693 38.086C32.036 37.6588 31.9756 37.2342 31.8883 36.8148V36.6791C31.8905 36.6656 31.8905 36.6518 31.8883 36.6383C31.8451 36.3593 31.75 36.0907 31.6079 35.8467C31.4889 35.6471 31.3305 35.474 31.1422 35.3378C30.954 35.2017 30.7399 35.1054 30.5131 35.055C30.1146 34.9736 29.7037 34.9736 29.3052 35.055C28.7941 35.139 28.2966 35.2911 27.826 35.5074L27.7445 35.5481L27.6767 35.5888C27.5344 35.6366 27.4089 35.7242 27.315 35.8413C27.2212 35.9584 27.163 36.1 27.1474 36.2493C27.1016 36.6048 27.0805 36.963 27.0841 37.3214C27.0816 37.3364 27.0816 37.3517 27.0841 37.3667C27.0905 37.7538 27.1299 38.1398 27.2017 38.5203C27.2412 38.7261 27.3367 38.9171 27.4776 39.0722C27.6159 39.2265 27.7898 39.3445 27.9843 39.416L28.0069 39.4024Z" fill="#1D1D1B"/>
<path d="M29.6943 35.6929C29.7285 35.5615 29.7091 35.4219 29.6404 35.3048C29.5717 35.1877 29.4592 35.1028 29.3279 35.0686C29.1965 35.0344 29.0569 35.0538 28.9398 35.1225C28.8228 35.1912 28.7378 35.3036 28.7036 35.435C28.5906 36.2732 28.5724 37.1215 28.6493 37.9638C28.7262 39.425 28.8936 41.1033 29.0021 41.7321C29.0655 42.076 29.1469 42.4243 29.2374 42.7545C29.346 43.1617 29.4726 43.5733 29.5902 43.9262C29.6335 44.0545 29.726 44.1604 29.8473 44.2206C29.9685 44.2808 30.1088 44.2904 30.2371 44.2474C30.3656 44.204 30.4717 44.1118 30.5327 43.9907C30.5936 43.8697 30.6045 43.7295 30.5629 43.6005C30.4543 43.2838 30.3367 42.8993 30.2281 42.4921C30.1376 42.1664 30.0607 41.8407 30.011 41.5512C29.9069 40.9586 29.7441 39.339 29.6717 37.9321C29.5983 37.1951 29.5983 36.4525 29.6717 35.7155L29.6943 35.6929Z" fill="#1D1D1B"/>
<path d="M35.4078 35.4667C35.3771 35.3367 35.2967 35.2239 35.1839 35.1524C35.071 35.0809 34.9347 35.0565 34.804 35.0842C34.6734 35.112 34.5588 35.1899 34.4848 35.3011C34.4108 35.4123 34.3833 35.548 34.4081 35.6793C34.4533 35.8964 34.8062 37.0364 35.1455 38.0226C35.3988 38.7826 35.6476 39.4883 35.7562 39.7281L35.8647 39.9905V40.0176C36.1769 40.764 36.9912 42.7319 37.2219 43.1843C37.7421 44.279 38.5157 44.2655 39.2802 43.9036C39.6289 43.7224 39.9579 43.5056 40.2619 43.2567C40.4044 43.1505 40.5558 43.0566 40.7143 42.9762C40.8463 42.9438 40.96 42.8603 41.0304 42.7441C41.1008 42.6278 41.1221 42.4884 41.0897 42.3564C41.0574 42.2244 40.9739 42.1107 40.8576 42.0403C40.7414 41.9699 40.602 41.9486 40.47 41.9809C40.1872 42.0814 39.9261 42.2349 39.7009 42.4333L40.0086 42.8405L39.7009 42.4333C39.4378 42.6443 39.1526 42.8263 38.8505 42.9762C38.7925 43.0172 38.7256 43.0441 38.6554 43.0545C38.5851 43.0649 38.5133 43.0587 38.4459 43.0362C38.3785 43.0137 38.3174 42.9757 38.2674 42.9252C38.2174 42.8747 38.1801 42.8131 38.1583 42.7455C37.9412 42.2931 37.1359 40.3569 36.8238 39.6195V39.5924L36.7424 39.624L36.8238 39.5924L36.7062 39.3571C36.6975 39.3337 36.6869 39.311 36.6745 39.2893L36.2221 39.5471L36.6745 39.2893C36.6157 39.1898 36.3759 38.4931 36.1136 37.715C35.7924 36.7424 35.4486 35.6748 35.4078 35.4802V35.4667Z" fill="#AA1118"/>
<path d="M35.435 40.2619C35.4325 40.3882 35.4769 40.5109 35.5595 40.6064C35.6421 40.7019 35.7571 40.7635 35.8824 40.7792C36.0077 40.7949 36.1344 40.7637 36.2381 40.6916C36.3417 40.6195 36.415 40.5115 36.4438 40.3886H36.4122C36.4122 40.3886 36.4122 40.3614 36.4122 40.3388L36.3669 40.271H36.3986L36.4257 40.3072V40.271H36.385L36.4122 40.3072V40.3388V40.375C37.0376 39.8815 37.6079 39.3218 38.1131 38.7057C38.7038 37.9837 39.3746 37.3311 40.1126 36.7605L35.435 40.2619ZM35.435 40.2619C35.4298 40.1185 35.4652 39.9766 35.5373 39.8525C35.6093 39.7284 35.715 39.6272 35.8422 39.5607L35.8874 39.5336C36.4356 39.0727 36.9371 38.559 37.3848 38C38.0319 37.2161 38.7665 36.5088 39.5743 35.8919L39.6241 35.8648C39.8245 35.7416 40.0504 35.6658 40.2845 35.6431H40.3162C40.474 35.6127 40.6374 35.6331 40.7829 35.7014C40.9284 35.7696 41.0485 35.8823 41.126 36.0231C41.3522 36.3624 40.3479 36.67 40.3433 36.67C40.3577 36.6874 40.3744 36.7026 40.3931 36.7152L40.3388 36.67C40.2769 36.6834 40.2174 36.7063 40.1624 36.7379H40.1353L35.435 40.2619ZM40.9857 36.7333C40.9036 36.7867 40.8077 36.8151 40.7098 36.8151C40.6118 36.8151 40.516 36.7867 40.4338 36.7333H40.4022H40.9857ZM40.9857 36.7333C40.9027 36.7865 40.8061 36.8148 40.7075 36.8148C40.6089 36.8148 40.5123 36.7865 40.4293 36.7333H40.9857Z" fill="#AA1118"/>
<path d="M44.6998 37.8145C44.8351 37.822 44.968 37.7758 45.0695 37.6861C45.1711 37.5964 45.2333 37.4702 45.2426 37.335C45.2558 37.2108 45.221 37.0864 45.1453 36.9871C45.0695 36.8878 44.9587 36.8213 44.8355 36.8012C44.7656 36.7219 44.709 36.6318 44.6681 36.5343C44.5763 36.3299 44.5344 36.1066 44.546 35.8828C44.5539 35.7509 44.5877 35.6218 44.6455 35.5028C44.7018 35.4783 44.7611 35.4616 44.8219 35.4531C45.0946 35.4086 45.3726 35.4086 45.6452 35.4531C45.9698 35.5097 46.284 35.615 46.5771 35.7652C46.7259 35.821 46.8611 35.908 46.9734 36.0204C47.0858 36.1327 47.1728 36.2679 47.2286 36.4167C47.31 36.8193 47.3598 37.1043 47.4005 37.4209C47.4412 37.7376 47.4683 38.1267 47.4955 38.6967C47.5037 38.8319 47.5647 38.9584 47.6654 39.049C47.7662 39.1396 47.8985 39.1869 48.0338 39.1807C48.1012 39.1778 48.1673 39.1615 48.2283 39.1328C48.2893 39.104 48.3439 39.0634 48.389 39.0133C48.4341 38.9631 48.4687 38.9045 48.4908 38.8408C48.5129 38.7771 48.5221 38.7097 48.5179 38.6424C48.4862 38.0271 48.459 37.6336 48.4183 37.2852C48.3776 36.9369 48.3188 36.6293 48.2329 36.204C48.1493 35.9036 47.9995 35.6257 47.7944 35.3909C47.5893 35.156 47.3341 34.9701 47.0476 34.8469C46.6613 34.6515 46.2482 34.5143 45.8217 34.4398C45.4253 34.3676 45.0192 34.3676 44.6229 34.4398C44.4374 34.4611 44.2593 34.5248 44.1024 34.626C43.9455 34.7272 43.814 34.8632 43.7181 35.0233C43.5915 35.2674 43.519 35.5359 43.5055 35.8105C43.4849 36.2005 43.5578 36.5898 43.7181 36.9459C43.845 37.25 44.0591 37.5097 44.3333 37.6924C44.3481 37.7055 44.3649 37.7162 44.3831 37.724C44.4822 37.7733 44.5896 37.804 44.6998 37.8145Z" fill="#1D1D1B"/>
<path d="M46.5409 35.4214C46.5914 35.3736 46.6316 35.316 46.659 35.2522C46.6864 35.1883 46.7006 35.1195 46.7005 35.05C46.7005 34.9805 46.6863 34.9118 46.6587 34.848C46.6312 34.7841 46.591 34.7266 46.5405 34.6789C46.49 34.6311 46.4302 34.5942 46.365 34.5703C46.2997 34.5464 46.2302 34.5361 46.1608 34.54C46.0915 34.5439 46.0236 34.5618 45.9614 34.5928C45.8992 34.6238 45.8439 34.6672 45.799 34.7202C45.1657 35.3898 45.6362 38.8867 46.2514 41.0536C46.3602 41.4622 46.4931 41.864 46.6495 42.2569C46.748 42.576 46.9462 42.855 47.215 43.0531C47.2358 43.0672 47.2587 43.0779 47.2828 43.0848C47.387 43.1345 47.5041 43.1503 47.6177 43.13C47.7313 43.1098 47.8357 43.0544 47.9162 42.9717C47.9742 42.9174 48.0258 42.8567 48.07 42.7907C48.116 42.7277 48.1568 42.6612 48.1921 42.5917C48.2538 42.4711 48.2651 42.3309 48.2236 42.202C48.182 42.0731 48.091 41.9659 47.9705 41.9041C47.8498 41.8629 47.7213 41.8505 47.595 41.8679C47.4729 41.4969 47.3462 41.1667 47.2421 40.7822C46.6993 38.8414 46.17 35.806 46.5545 35.4214H46.5409Z" fill="#1D1D1B"/>
<path d="M21.1895 48.5857C21.2063 48.4568 21.1712 48.3264 21.0919 48.2233C21.0125 48.1202 20.8955 48.0529 20.7665 48.0361C20.6376 48.0193 20.5072 48.0544 20.4041 48.1337C20.301 48.2131 20.2337 48.3301 20.2169 48.4591C20.1916 49.739 20.2703 51.019 20.4521 52.2862C20.5697 53.5388 20.7907 54.7795 21.1126 55.9957C21.1488 56.0953 21.1805 56.1903 21.2076 56.2807C21.3705 56.8145 21.5288 57.3393 22.2028 57.6107C22.2619 57.6351 22.3252 57.6474 22.3891 57.6472C22.453 57.6469 22.5162 57.634 22.5751 57.6092C22.634 57.5844 22.6874 57.5482 22.7322 57.5026C22.777 57.4571 22.8123 57.4031 22.8362 57.3438C22.8606 57.2844 22.873 57.2208 22.8728 57.1566C22.8726 57.0924 22.8597 57.0288 22.835 56.9696C22.8102 56.9103 22.7739 56.8566 22.7284 56.8113C22.6828 56.7661 22.6287 56.7303 22.5693 56.706C22.3295 56.611 22.239 56.3079 22.144 56.0003C22.1078 55.8826 22.0716 55.765 22.0355 55.661C21.7382 54.5167 21.534 53.3503 21.4247 52.1731C21.25 50.9856 21.1713 49.7859 21.1895 48.5857Z" fill="#1D1D1B"/>
<path d="M19.9274 48.6988C19.8053 48.7106 19.692 48.7673 19.6096 48.8581C19.5271 48.9488 19.4814 49.067 19.4814 49.1897C19.4814 49.3123 19.5271 49.4305 19.6096 49.5212C19.692 49.612 19.8053 49.6688 19.9274 49.6805C20.1686 49.6687 20.4089 49.6415 20.6466 49.5991C20.9136 49.5583 21.2257 49.5131 21.5152 49.4905C21.7479 49.4748 21.9804 49.523 22.1877 49.6298C22.395 49.7367 22.5692 49.8981 22.6914 50.0967C22.7577 50.2117 22.7978 50.3399 22.809 50.4722C22.8219 50.6837 22.754 50.8923 22.619 51.0557C21.8771 52.0238 20.8095 52.0238 20.1581 52.0238H19.7328C19.6076 52.0398 19.4933 52.1037 19.4141 52.2021C19.3349 52.3004 19.2969 52.4257 19.308 52.5515C19.3191 52.6773 19.3785 52.7939 19.4737 52.8769C19.569 52.9598 19.6926 53.0027 19.8188 52.9964C19.9093 52.9964 20.0359 52.9964 20.1716 52.9964C21.0266 52.9964 22.3612 52.9602 23.3881 51.6393C23.6754 51.2839 23.8176 50.833 23.7862 50.3772C23.7622 50.0997 23.6773 49.8309 23.5374 49.59C23.3996 49.3506 23.2168 49.1402 22.999 48.9702C22.5578 48.6228 22.0031 48.4518 21.4428 48.4907C21.1262 48.5179 20.7959 48.5676 20.5064 48.6083C20.3147 48.6408 20.1214 48.6634 19.9274 48.6762V48.6988Z" fill="#1D1D1B"/>
<path d="M27.3329 49.2779C27.2225 49.3463 27.1438 49.4557 27.1141 49.5821C27.0844 49.7085 27.1062 49.8415 27.1745 49.9519C27.2429 50.0623 27.3524 50.141 27.4788 50.1707C27.6052 50.2004 27.7382 50.1786 27.8486 50.1103C28.1741 49.9737 28.5303 49.9269 28.88 49.9745C28.9732 49.9847 29.0645 50.0076 29.1515 50.0424C29.1891 50.0596 29.2218 50.086 29.2465 50.1193C29.2663 50.1826 29.2663 50.2505 29.2465 50.3138C29.2057 50.626 28.7443 50.92 28.31 51.2186L28.1336 51.3317L28.1019 51.3588C27.8635 51.4887 27.6826 51.7034 27.5953 51.9605C27.5605 52.121 27.5732 52.2882 27.6318 52.4417C27.6905 52.5951 27.7925 52.7281 27.9255 52.8245L27.9526 52.8517C28.7665 53.6286 29.694 54.2769 30.7031 54.7743C31.5491 55.1543 32.3588 55.2583 32.8745 54.7426C32.9654 54.6504 33.0164 54.5261 33.0164 54.3966C33.0164 54.2671 32.9654 54.1427 32.8745 54.0505C32.7815 53.9593 32.6565 53.9082 32.5262 53.9082C32.396 53.9082 32.2709 53.9593 32.1779 54.0505C32.0195 54.2133 31.5988 54.1048 31.1057 53.8831C30.2063 53.4368 29.3784 52.8589 28.6493 52.1686C28.6665 52.1591 28.6832 52.1485 28.6991 52.1369L28.8755 52.0238C29.4998 51.6257 30.1603 51.2005 30.2326 50.4314C30.2784 50.1449 30.2207 49.8514 30.0698 49.6036C29.9503 49.4069 29.7757 49.2496 29.5676 49.1512C29.3858 49.063 29.1898 49.0078 28.9886 48.9884C28.4189 48.9281 27.8436 49.0234 27.3238 49.2643L27.3329 49.2779Z" fill="#1D1D1B"/>
<path d="M28.8846 49.8252C28.8846 49.6957 28.8331 49.5714 28.7415 49.4798C28.6498 49.3881 28.5256 49.3367 28.396 49.3367C28.2664 49.3367 28.1421 49.3881 28.0505 49.4798C27.9589 49.5714 27.9074 49.6957 27.9074 49.8252C27.9074 50.2776 27.9526 51.0105 28.016 51.7479C28.1246 53.0191 28.2829 54.3717 28.3146 54.5752C28.3867 55.1691 28.5185 55.7541 28.7081 56.3214C28.8377 56.7487 29.095 57.126 29.4455 57.4026C29.4972 57.4407 29.5559 57.468 29.6183 57.4829C29.6807 57.4978 29.7454 57.5001 29.8087 57.4895C29.872 57.479 29.9325 57.4558 29.9867 57.4215C30.0408 57.3871 30.0876 57.3423 30.1241 57.2895C30.1988 57.1837 30.2288 57.0526 30.2076 56.9248C30.1864 56.797 30.1158 56.6826 30.011 56.6064C29.8254 56.4423 29.6931 56.2265 29.631 55.9867C29.464 55.4822 29.3473 54.9625 29.2827 54.435C29.2555 54.236 29.1017 52.9241 28.9931 51.6664C28.9343 50.9562 28.8846 50.2686 28.8846 49.8252Z" fill="#1D1D1B"/>
<path d="M35.8919 48.9612C36.0119 48.9012 36.1031 48.796 36.1455 48.6687C36.188 48.5415 36.1781 48.4026 36.1181 48.2826C36.0581 48.1626 35.9529 48.0714 35.8257 48.029C35.6984 47.9866 35.5595 47.9964 35.4395 48.0564C34.7791 48.3776 35.141 49.7302 35.4395 50.7707C35.5391 51.1462 35.6295 51.4809 35.6476 51.6348C35.6506 51.7699 35.6913 51.9016 35.7652 52.0148C35.8867 52.4901 36.0724 52.9467 36.3171 53.3719C36.3631 53.4195 36.4181 53.4572 36.4791 53.4828C36.54 53.5085 36.6055 53.5215 36.6715 53.5211C36.7376 53.5207 36.803 53.5069 36.8636 53.4805C36.9242 53.4542 36.9788 53.4158 37.0241 53.3677C37.0695 53.3196 37.1046 53.2628 37.1273 53.2007C37.1501 53.1387 37.16 53.0726 37.1565 53.0066C37.153 52.9406 37.1361 52.876 37.107 52.8167C37.0778 52.7575 37.0368 52.7047 36.9867 52.6617C36.9867 52.6617 36.8102 52.0736 36.6971 51.7162C36.674 51.63 36.6453 51.5454 36.6112 51.4629C36.575 51.2231 36.4845 50.8883 36.385 50.5129C36.1905 49.789 35.8105 48.9386 35.8783 48.9069L35.8919 48.9612Z" fill="#1D1D1B"/>
<path d="M35.521 49.2236C35.4598 49.2432 35.403 49.2747 35.354 49.3162C35.305 49.3577 35.2646 49.4085 35.2352 49.4656C35.2058 49.5228 35.1879 49.5851 35.1826 49.6491C35.1773 49.7132 35.1847 49.7776 35.2043 49.8388C35.2239 49.9 35.2554 49.9567 35.2969 50.0058C35.3384 50.0548 35.3892 50.0952 35.4463 50.1246C35.5035 50.154 35.5658 50.1718 35.6299 50.1772C35.6939 50.1825 35.7584 50.1751 35.8195 50.1555C36.2341 50.1022 36.6553 50.1648 37.0364 50.3364C37.4434 50.453 37.8109 50.6782 38.0995 50.9879L38.5067 50.721L38.095 50.9879L38.1222 51.0241C38.21 51.1657 38.2799 51.3176 38.3303 51.4764C38.3976 51.6574 38.4432 51.8457 38.466 52.0374C38.4777 52.1594 38.5345 52.2727 38.6252 52.3552C38.716 52.4376 38.8342 52.4833 38.9568 52.4833C39.0794 52.4833 39.1976 52.4376 39.2884 52.3552C39.3791 52.2727 39.4359 52.1594 39.4476 52.0374C39.3927 51.4819 39.2183 50.9449 38.9365 50.4631C38.5307 49.9776 37.9935 49.6195 37.3893 49.4317C36.8063 49.1876 36.1641 49.1215 35.5436 49.2417L35.521 49.2236Z" fill="#1D1D1B"/>
<path d="M36.6429 57.4524C36.7055 57.4767 36.7725 57.4878 36.8396 57.4851C36.9067 57.4823 36.9726 57.4658 37.033 57.4364C37.0934 57.4071 37.1472 57.3656 37.1908 57.3146C37.2345 57.2635 37.2672 57.204 37.2869 57.1398C37.3065 57.0755 37.3127 57.0079 37.305 56.9412C37.2974 56.8745 37.276 56.81 37.2423 56.7519C37.2087 56.6938 37.1633 56.6432 37.1092 56.6034C37.0551 56.5636 36.9934 56.5354 36.9279 56.5205C36.5886 56.4164 36.3443 55.6971 36.2041 55.2809C36.2041 55.2221 36.1634 55.1633 36.1317 55.0819C36.1317 55.0231 36.0955 54.9643 36.0684 54.8964C35.8718 54.389 35.7204 53.8652 35.616 53.3312C35.6487 53.3023 35.6873 53.2807 35.7291 53.2678C36.0221 53.1509 36.3248 53.0601 36.6338 52.9964C36.9736 52.9258 37.3077 52.8305 37.6336 52.7114H37.6743C37.9075 52.6151 38.1552 52.5586 38.4072 52.544C38.6137 52.5509 38.8142 52.6151 38.9862 52.7295C39.5698 53.0869 39.5788 54.539 39.5879 55.5252C39.5879 55.7378 39.5879 55.9324 39.5879 56.0907C39.5844 56.1584 39.595 56.2261 39.6191 56.2895C39.6432 56.3529 39.6802 56.4106 39.7278 56.4589C39.7754 56.5072 39.8326 56.545 39.8956 56.57C39.9586 56.5951 40.0262 56.6067 40.094 56.6041C40.1617 56.6016 40.2282 56.585 40.2892 56.5554C40.3502 56.5258 40.4044 56.4838 40.4483 56.4321C40.4922 56.3804 40.5248 56.3201 40.5441 56.2551C40.5634 56.1901 40.569 56.1218 40.5605 56.0545C40.5605 55.8917 40.5605 55.7107 40.5605 55.5162C40.5605 54.2857 40.5333 52.535 39.4974 51.8971C39.1738 51.6834 38.7949 51.5687 38.4072 51.5669C38.0368 51.5744 37.6714 51.6528 37.3305 51.7976H37.2898C37.0053 51.9019 36.7134 51.9851 36.4167 52.0464C36.0538 52.1188 35.698 52.2233 35.3536 52.3586C35.1607 52.4331 34.9874 52.5507 34.8469 52.7024C34.7004 52.8685 34.6199 53.0826 34.6207 53.304C34.6207 53.4488 35.1138 55.2809 35.1726 55.4302L35.2405 55.6202C35.4395 56.2083 35.7879 57.2262 36.5976 57.475L36.6429 57.4524Z" fill="#1D1D1B"/>
<path d="M50.3591 56.4662C50.3205 56.5205 50.2934 56.5822 50.2795 56.6474C50.2656 56.7125 50.2652 56.7799 50.2783 56.8452C50.2915 56.9106 50.3178 56.9726 50.3557 57.0273C50.3937 57.0821 50.4425 57.1286 50.499 57.1638C50.5556 57.1991 50.6188 57.2224 50.6847 57.2323C50.7506 57.2422 50.8179 57.2385 50.8823 57.2215C50.9467 57.2044 51.007 57.1744 51.0594 57.1332C51.1118 57.092 51.1552 57.0405 51.1869 56.9819C51.2873 56.7196 51.363 56.4485 51.4131 56.1721C51.49 55.8238 51.5624 55.4166 51.5941 55.1724C51.6936 54.6476 51.9424 53.8152 52.1957 52.9964L52.3088 52.6209C52.3526 53.1504 52.4589 53.6727 52.6255 54.1771C52.8788 54.824 53.2815 55.1543 53.9238 54.9009C54.0193 54.8623 54.1012 54.7962 54.1591 54.7109C54.6115 54.159 54.7879 52.7159 54.8648 52.0962C54.8648 52.0057 54.815 52.0962 54.8648 52.0147C54.9003 51.9446 54.9189 51.8672 54.9191 51.7886C54.9191 51.5714 54.9824 51.2864 55.0277 50.9833C55.0488 51.2246 55.0669 51.4463 55.0819 51.6483C55.1034 52.6371 55.3154 53.6124 55.7062 54.5209C55.9626 55.0309 56.2884 55.5028 56.6743 55.9233C57.0044 56.3081 57.3976 56.634 57.8369 56.8869C57.8939 56.9167 57.9563 56.935 58.0204 56.9407C58.0845 56.9464 58.149 56.9394 58.2104 56.9201C58.2718 56.9007 58.3287 56.8695 58.378 56.8281C58.4272 56.7867 58.4678 56.7359 58.4974 56.6788C58.5561 56.5629 58.5667 56.4285 58.5269 56.3048C58.4871 56.1812 58.4001 56.0782 58.2848 56.0183C57.9506 55.8212 57.6524 55.5688 57.4027 55.2719C57.0878 54.9349 56.8214 54.5558 56.611 54.1455C56.2619 53.3345 56.0744 52.4632 56.0591 51.5805C56.0274 51.1597 55.9957 50.6757 55.9098 50.0469C55.912 50.0334 55.912 50.0197 55.9098 50.0062L55.4257 50.074L55.9098 50.0062C55.8856 49.6409 55.7887 49.284 55.6248 48.9567C55.3443 48.5043 55.0412 48.5043 54.72 48.8209L54.6838 48.8481L55.0367 49.1919L54.6884 48.8526C54.5564 49.0055 54.4578 49.1842 54.3988 49.3774C54.1737 50.1454 54.0222 50.933 53.9465 51.7297C53.9465 51.7976 53.9238 51.879 53.9103 51.974C53.8424 52.5214 53.6615 53.9147 53.6298 53.9736H53.58C53.58 53.9736 53.58 53.8967 53.5529 53.8017C53.3624 53.1215 53.2501 52.4218 53.2181 51.7162C53.1774 51.2638 53.1412 50.8747 53.0869 50.5536C52.9784 49.8931 52.7657 49.6488 52.4084 49.7302C52.051 49.8117 51.9831 50.0605 51.9017 50.445L51.8746 50.5762V50.6169C51.7434 51.2005 51.5172 51.9469 51.2955 52.6752C51.0377 53.5212 50.7843 54.3445 50.6757 54.9371C50.626 55.1136 50.5129 55.7605 50.4722 55.9369C50.4088 56.2219 50.3817 56.4209 50.3727 56.4436L50.3591 56.4662Z" fill="#1D1D1B"/>
<path fill-rule="evenodd" clip-rule="evenodd" d="M41.1667 36.0593C40.651 36.1377 40.375 36.3413 40.3388 36.67C40.4253 36.7341 40.5237 36.7803 40.6283 36.8057C40.7234 36.8243 40.8217 36.8152 40.9118 36.7796C41.0018 36.744 41.0798 36.6834 41.1365 36.6048C41.1931 36.5263 41.226 36.4332 41.2314 36.3365C41.2368 36.2398 41.2143 36.1436 41.1667 36.0593Z" fill="#AA1118"/>
<path fill-rule="evenodd" clip-rule="evenodd" d="M46.7038 48.9793C46.0577 48.7931 45.3677 48.8297 44.745 49.0833C43.9488 49.4724 43.412 50.3123 43.1345 51.6031C42.8328 52.9763 42.8841 54.4035 43.2838 55.7514C43.4169 56.0928 43.631 56.3968 43.9076 56.6371C44.1842 56.8775 44.515 57.047 44.8717 57.1312C45.8036 57.288 46.5093 57.1523 46.9888 56.7241C47.9714 55.5308 48.5608 54.0628 48.6762 52.5214C48.6498 51.7287 48.4359 50.9536 48.0519 50.2595C47.7676 49.6807 47.2865 49.2221 46.6947 48.9657L46.7038 48.9793ZM45.2381 49.9429C45.5833 49.8336 45.9506 49.8134 46.3057 49.8841C47.1245 50.1238 47.7126 51.7886 47.6628 52.4762C47.6131 53.5755 46.8531 55.5569 46.3419 55.9641C46.0366 56.1758 45.6644 56.2688 45.2954 56.2254C44.9263 56.1821 44.5858 56.0055 44.3378 55.7288C44.2681 55.6362 44.2117 55.5341 44.1705 55.4257C43.8226 54.2494 43.7805 53.0038 44.0483 51.8067C44.2519 50.9019 44.6545 50.0469 45.22 49.9338L45.2381 49.9429Z" fill="#1D1D1B"/>
<path d="M7.8443 18.0138C12.0743 11.6279 18.2215 6.74885 25.4009 4.07887C32.5803 1.4089 40.4218 1.08571 47.7965 3.15584C55.1713 5.22596 61.6991 9.58263 66.4403 15.5988C71.1815 21.6149 73.8916 28.9802 74.1805 36.6346C74.4694 44.289 72.3222 51.8376 68.048 58.194C63.7738 64.5504 57.593 69.3868 50.3953 72.0069C43.1975 74.6271 35.354 74.8959 27.9938 72.7747C20.6335 70.6535 14.1361 66.2517 9.43668 60.2029L10.4862 59.3886C15.0135 65.2129 21.2719 69.4506 28.3608 71.4919C35.4496 73.5332 43.0033 73.2728 49.9348 70.7482C56.8663 68.2236 62.818 63.565 66.9335 57.4428C71.049 51.3205 73.116 44.0505 72.837 36.6788C72.558 29.3072 69.9475 22.2142 65.381 16.4205C60.8146 10.6269 54.5277 6.4314 47.4253 4.43791C40.3228 2.44441 32.7711 2.75569 25.8568 5.32695C18.9425 7.89821 13.0223 12.5969 8.94811 18.7467L7.8443 18.0138Z" fill="#AA1118"/>
<path d="M5.72259 24.8809L5.74973 24.8176L5.77688 24.7543L5.80402 24.6909L5.82664 24.6276L5.85378 24.5643L5.88092 24.5009L5.90807 24.4376L5.93521 24.3743L5.96235 24.3109L5.9895 24.2521L6.01664 24.1888L6.04378 24.1255L6.07092 24.0621L6.09807 23.9988L6.12521 23.9355L6.15235 23.8766L6.1795 23.8133L6.20664 23.75L6.23831 23.6866L6.26545 23.6278L6.29259 23.5645L6.3333 23.5238L6.36497 23.4605L6.39211 23.3971L6.41926 23.3383L6.45092 23.275L6.47807 23.2116L6.50973 23.1528L6.53688 23.0895L6.56854 23.0262L6.59569 22.9674L6.62735 22.904L6.6545 22.8407L6.68616 22.7819L6.71783 22.7185L6.74497 22.6552L6.77664 22.5964L6.80831 22.5331L5.61854 21.945L5.58688 22.0083L5.55521 22.0716L5.52354 22.135L5.49188 22.1983L5.46021 22.2616L5.43307 22.325L5.4014 22.3883L5.36973 22.4516L5.33807 22.5195L5.3064 22.5828L5.27926 22.6462L5.24759 22.7095L5.21592 22.7774L5.18878 22.8407L5.15711 22.904L5.12997 22.9674L5.0983 23.0352L5.07116 23.0985L5.0395 23.1619L5.01235 23.2297L4.98069 23.2931L4.95354 23.3564L4.92188 23.4243L4.89473 23.4876L4.86759 23.5509L4.84045 23.6188L4.80878 23.6821L4.78164 23.7455L4.7545 23.8133L4.72735 23.8766L4.70021 23.9445L4.66854 24.0078L4.6414 24.0757L4.61426 24.139L4.58711 24.2024L4.55997 24.2702L4.53283 24.3381L4.50569 24.4014L5.72259 24.8809ZM8.20164 56.2083L8.16545 56.1495L8.14283 56.0952L8.09759 56.0228L8.05688 55.9504L8.01164 55.8781L7.97092 55.8057L7.92569 55.7333L7.88497 55.6609L7.84426 55.5885L7.79902 55.5162L7.7583 55.4438L7.71759 55.3714L7.67688 55.299L7.63616 55.2221L7.59545 55.1497L7.55473 55.0773L7.51402 55.005L7.47331 54.9326L7.43259 54.8557L7.39188 54.7833L7.35116 54.7109L7.31045 54.6385L7.23807 54.5571L7.19735 54.4847L7.15664 54.4123L7.12045 54.3354L7.07973 54.2631L7.04354 54.1862L7.00283 54.1138L6.96664 54.0414L6.92592 53.9645V53.9419L5.74069 54.5435V54.5662L5.77688 54.6431L5.81759 54.72L5.8583 54.8014L5.89902 54.8783L5.93973 54.9552L5.98045 55.0321L6.02116 55.109L6.06188 55.1859L6.10259 55.2628L6.1433 55.3397L6.18402 55.4121L6.22473 55.489L6.26545 55.5659L6.31069 55.6428L6.3514 55.7197L6.39211 55.7966L6.43735 55.869L6.47807 55.9459L6.5233 56.0228L6.56402 56.0997L6.60926 56.1721L6.64997 56.249L6.69521 56.3259L6.74045 56.3983L6.78569 56.4752L6.8264 56.5476L6.87164 56.6245L6.91688 56.6969L6.96211 56.7738L7.00735 56.8462L7.03902 56.905L8.17902 56.2219L8.20164 56.2083ZM5.36069 50.3273L5.33354 50.255L5.30188 50.1781L5.27473 50.1012L5.24759 50.0197L5.21592 49.9428L5.18878 49.8659L5.16164 49.7845L5.1345 49.7076L5.10283 49.6307L5.07569 49.5492L5.04854 49.4723L5.0214 49.3909L4.99426 49.314L4.96711 49.2326L4.9445 49.1557L4.91735 49.0743L4.89021 48.9973L4.86307 48.9159L4.83592 48.839V48.7576L4.80878 48.6762L4.78616 48.5993L4.75902 48.5178L4.73188 48.4409L4.70926 48.3595V48.2781L4.68211 48.2012L4.6595 48.1197V48.0383L4.63235 47.9614L4.60973 47.88V47.8528L3.33402 48.2238V48.2509L3.36116 48.3369V48.4183L3.3883 48.5043L3.41092 48.5857L3.43807 48.6671L3.46521 48.7531L3.48783 48.8345L3.51497 48.9159L3.54211 48.9973V49.0833L3.56926 49.1647L3.5964 49.2462L3.62354 49.3276L3.65069 49.4135L3.67783 49.495L3.70497 49.5764L3.73211 49.6578L3.75926 49.7393L3.79092 49.8252L3.81807 49.9066L3.84521 49.9881L3.87235 50.0695L3.90402 50.1509L3.93116 50.2323L3.96283 50.3138L3.98997 50.3952L4.02164 50.4766L4.04878 50.5581L4.0714 50.6666L4.10307 50.7481L4.12569 50.8204L5.37426 50.3681L5.36069 50.3273ZM3.65069 44.0845V44.0031V43.9216V43.8402V43.7543V43.6728V43.5914V43.51V43.424V43.3426V43.2612V43.1752V43.0938V43.0078V42.9264V42.845V42.759V42.6776V42.5916V42.5102V42.4288V42.3428V42.2614V42.1754V42.094V42.0081V41.9266V41.8407V41.7593V41.6733V41.5919V41.5059L1.97688 41.619V41.714V41.8045V41.8904V41.9764V42.0624V42.1483V42.2388V42.3247V42.4107V42.4966V42.5826V42.6685V42.7545V42.8404V42.9309V43.0169V43.1028V43.1888V43.2747V43.3607V43.4466V43.5326V43.6185V43.7045V43.7904L2.26188 43.8809V43.9669V44.0528V44.1388V44.2247V44.3016L3.56926 44.08L3.65069 44.0845ZM3.1395 37.5928V35.2404V35.1726V34.9916L1.81854 34.874V34.9916V35.0595V35.2043V35.2721V37.5747H3.14854L3.1395 37.5928ZM3.83616 31.1238V31.065V30.9971V30.9338V30.8659V30.7981V30.7347V30.6669V30.599V30.5357V30.4678V30.4V30.3366V30.2688V30.2009V30.1331V30.0697V30.0019V29.9385V29.8707V29.8028V29.7395V29.6716V29.6083V29.5405V29.4726V29.4093V29.3414V29.2781V29.2102V29.1469V29.079V29.0157V28.9478V28.8845V28.8166V28.7533V28.6855V28.6221V28.5905L3.16664 28.2285V28.2602V28.3281V28.3959V28.4638V28.5316V28.5995V28.6674V28.7352V28.8076V28.8755V28.9433V29.0112V29.079V29.1469V29.2147V29.2826V29.3504V29.4228V29.4907V29.5585V29.6264V29.6943V29.7621V29.8345V29.9024V29.9702V30.0381V30.1104V30.1783V30.2462V30.314V30.3819V30.4543V30.5221V30.59V30.6578V30.7302V30.7981V30.8569L4.4695 31.1238H3.83616Z" fill="#1D1D1B"/>
</svg>
