<svg width="32" height="32" viewBox="0 0 32 32" fill="none" xmlns="http://www.w3.org/2000/svg">
<path d="M30.5 16C30.5 16.3835 30.4851 16.7635 30.4559 17.1393L30.9544 17.1781C30.8927 17.972 30.7692 18.7487 30.5887 19.5032L30.1024 19.3869C29.9242 20.132 29.6883 20.8548 29.3999 21.5503L29.8618 21.7418C29.5592 22.4715 29.2007 23.1722 28.7915 23.8384L28.3655 23.5767C27.967 24.2256 27.5189 24.8408 27.0263 25.4169L27.4064 25.7418C26.8958 26.3391 26.3391 26.8958 25.7418 27.4064L25.4169 27.0263C24.8408 27.5189 24.2256 27.967 23.5767 28.3655L23.8384 28.7915C23.1722 29.2007 22.4715 29.5592 21.7418 29.8618L21.5503 29.3999C20.8548 29.6883 20.132 29.9242 19.3869 30.1024L19.5032 30.5887C18.7487 30.7692 17.972 30.8927 17.178 30.9544L17.1393 30.4559C16.7635 30.4851 16.3835 30.5 16 30.5C15.6165 30.5 15.2365 30.4851 14.8607 30.4559L14.8219 30.9544C14.028 30.8927 13.2513 30.7692 12.4968 30.5887L12.6131 30.1024C11.868 29.9242 11.1452 29.6883 10.4497 29.3999L10.2582 29.8618C9.52848 29.5592 8.82784 29.2007 8.1616 28.7915L8.42325 28.3655C7.77439 27.967 7.15922 27.5189 6.58307 27.0263L6.25817 27.4064C5.6609 26.8958 5.10422 26.3391 4.59363 25.7418L4.97368 25.4169C4.48114 24.8408 4.033 24.2256 3.63454 23.5767L3.20846 23.8384C2.79934 23.1722 2.4408 22.4715 2.13821 21.7418L2.60007 21.5503C2.31166 20.8548 2.07584 20.132 1.89756 19.3868L1.41128 19.5032C1.23077 18.7487 1.10726 17.972 1.04558 17.178L1.54408 17.1393C1.51488 16.7635 1.5 16.3835 1.5 16C1.5 15.6165 1.51488 15.2365 1.54408 14.8607L1.04558 14.8219C1.10726 14.028 1.23077 13.2513 1.41128 12.4968L1.89756 12.6131C2.07584 11.868 2.31166 11.1452 2.60007 10.4497L2.13821 10.2582C2.4408 9.52848 2.79934 8.82784 3.20846 8.16161L3.63454 8.42325C4.033 7.77439 4.48114 7.15923 4.97369 6.58307L4.59363 6.25817C5.10422 5.66091 5.6609 5.10422 6.25817 4.59363L6.58307 4.97369C7.15922 4.48114 7.77439 4.033 8.42325 3.63454L8.16161 3.20846C8.82784 2.79934 9.52848 2.4408 10.2582 2.13821L10.4497 2.60007C11.1452 2.31166 11.868 2.07584 12.6132 1.89756L12.4968 1.41128C13.2513 1.23077 14.028 1.10726 14.822 1.04558L14.8607 1.54408C15.2365 1.51488 15.6165 1.5 16 1.5C16.3835 1.5 16.7635 1.51488 17.1393 1.54408L17.178 1.04558C17.972 1.10726 18.7487 1.23077 19.5032 1.41128L19.3869 1.89756C20.132 2.07584 20.8548 2.31166 21.5503 2.60007L21.7418 2.13821C22.4715 2.4408 23.1722 2.79934 23.8384 3.20847L23.5767 3.63454C24.2256 4.033 24.8408 4.48114 25.4169 4.97369L25.7418 4.59363C26.3391 5.10423 26.8958 5.66091 27.4064 6.25817L27.0263 6.58307C27.5189 7.15923 27.967 7.77439 28.3655 8.42325L28.7915 8.16161C29.2007 8.82784 29.5592 9.52848 29.8618 10.2582L29.3999 10.4497C29.6883 11.1452 29.9242 11.868 30.1024 12.6131L30.5887 12.4968C30.7692 13.2513 30.8927 14.028 30.9544 14.822L30.4559 14.8607C30.4851 15.2365 30.5 15.6165 30.5 16Z" stroke="#141414" stroke-miterlimit="10" stroke-dasharray="2.4 2.4"/>
<path fill-rule="evenodd" clip-rule="evenodd" d="M12.3687 22.6289H19.6867V16.1424H22.8728L19.3714 11.8857L15.87 7.62891L12.3687 11.8857L8.8728 16.1424H12.3687V22.6289Z" fill="#141414"/>
</svg>
