<svg width="24" height="24" viewBox="0 0 24 24" fill="none" xmlns="http://www.w3.org/2000/svg">
<path d="M23.083 10.064C23.0802 8.67591 23.1821 7.2611 23.1255 5.86583C23.0979 5.1751 23.083 0.858376 23.083 0.858376C22.3811 0.858376 20.5745 0.847178 19.8843 0.901502C18.0738 1.04375 0.905091 0.89221 0.905091 0.89221C0.904383 1.80214 0.905091 5.8706 0.905091 6.78434C0.905091 8.69092 0.876306 10.5227 0.86215 12.4152C0.838085 15.6906 0.905091 19.8716 0.905091 23.0819L1.27999 23.1012C2.13668 22.9992 3.60548 23.0967 4.41521 23.0819C5.8313 23.056 12.0487 23.1903 13.6898 23.125C15.1793 23.066 22.3865 23.147 22.9974 23.1291C22.9974 23.1291 23.1007 13.6466 23.0833 13.0168C23.0554 12.0202 23.0849 11.0497 23.083 10.064ZM19.0371 16.3961C18.5053 16.7323 16.3437 16.8324 15.8201 16.4483C15.5332 16.2377 15.2711 15.9742 15.0215 15.7235C14.8471 15.5482 14.6492 15.4631 14.4996 15.2727C14.3769 15.1169 14.2934 14.9332 14.1643 14.7798C13.947 14.5217 13.6125 14.3023 13.3475 14.6175C12.9492 15.0914 13.4105 16.023 12.8787 16.3771C12.7006 16.496 12.5205 16.5303 12.2978 16.5134L11.8045 16.5362C11.5148 16.542 11.0554 16.5446 10.7258 16.4843C10.3582 16.4173 10.0543 16.2146 9.72188 16.0654C9.09051 15.7826 8.48888 15.3976 8.03163 14.8639C6.78613 13.4105 5.11287 11.4114 4.46287 9.58394C4.32956 9.20843 3.97637 8.46553 4.31093 8.14292C4.76605 7.80911 7.00036 7.71476 7.34907 8.23131C7.49063 8.44099 7.58005 8.74858 7.67985 8.98637C7.80443 9.28301 7.8719 9.56249 8.06702 9.8253C8.23973 10.0581 8.3669 10.2923 8.50067 10.5477C8.65026 10.8341 8.79182 11.1091 8.97396 11.3731C9.09759 11.5525 9.4246 11.9092 9.63104 11.9358C10.1355 12.0009 10.1041 10.7631 10.0668 10.461C10.031 10.1698 10.0218 9.8608 10.0312 9.56559C10.0392 9.31375 10.0619 8.95873 9.91417 8.75287C9.67327 8.4174 9.13676 8.66853 9.09476 8.21773C9.18371 8.08955 9.1646 7.97613 9.75656 7.77933C10.2225 7.62445 10.5236 7.62946 10.831 7.65424C11.4574 7.70499 12.1221 7.53368 12.7263 7.73882C13.3041 7.93539 13.2147 8.76431 13.1956 9.26133C13.1696 9.9399 13.1972 10.6016 13.1956 11.2901C13.1949 11.6037 13.1821 11.9087 13.5608 11.8832C13.9156 11.8591 13.9517 11.558 14.1211 11.309C14.3568 10.9621 14.573 10.6106 14.8127 10.2649C15.1361 9.7979 15.2338 9.273 15.5377 8.79457C15.6467 8.62326 15.7401 8.24918 15.9079 8.11409C16.0346 8.01163 16.2762 8.05547 16.4295 8.05547H16.7948C17.0743 8.05881 17.3594 8.06286 17.6465 8.07311C18.0603 8.08764 18.5237 7.99686 18.934 8.05524C20.704 8.30756 16.7089 12.1312 16.917 12.8134C17.0607 13.2846 17.9718 13.8122 18.3007 14.1984C18.7386 14.7119 20.0825 15.7352 19.0371 16.3961Z" fill="#141414"/>
</svg>
